<svg width="100" height="100" viewBox="0 0 100 100" fill="none" xmlns="http://www.w3.org/2000/svg">
<mask id="mask0_206_5011" style="mask-type:luminance" maskUnits="userSpaceOnUse" x="15" y="7" width="70" height="70">
<path d="M15.2 7.20001H84.7999V76.716H15.2V7.20001Z" fill="white"/>
</mask>
<g mask="url(#mask0_206_5011)">
<path d="M49.9328 7.20001C30.7693 7.20001 15.2 22.7693 15.2 41.9328C15.2 61.0963 30.7693 76.6656 49.9328 76.6656C69.0963 76.6656 84.6656 61.0963 84.6656 41.9328C84.6656 22.7693 69.0963 7.20001 49.9328 7.20001ZM49.9328 8.7102C68.2999 8.7102 83.1554 23.5643 83.1554 41.9328C83.1554 60.3 68.2999 75.1555 49.9328 75.1555C31.5656 75.1555 16.7101 60.3 16.7101 41.9328C16.7101 23.5643 31.5656 8.7102 49.9328 8.7102Z" fill="white"/>
</g>
<mask id="mask1_206_5011" style="mask-type:luminance" maskUnits="userSpaceOnUse" x="32" y="15" width="36" height="60">
<path d="M32.4348 15.2715H67.3118V74.3912H32.4348V15.2715Z" fill="white"/>
</mask>
<g mask="url(#mask1_206_5011)">
<path d="M36.4391 74.3045C36.4391 74.3045 36.4349 74.0791 36.4867 73.5277C36.5973 72.331 36.803 69.6885 36.8982 68.2148C36.9528 67.3806 37.0368 63.1663 37.0857 58.8485C37.1347 54.5307 37.2103 50.0562 37.2537 48.9029C37.3951 45.1253 37.4706 38.8802 37.3727 38.9404C37.3237 38.9712 37.1669 39.0426 37.0256 39.0972C36.7708 39.1966 36.7694 39.1994 36.9682 39.2763C37.1095 39.3309 37.1683 39.4261 37.1683 39.601C37.1683 39.9188 36.859 40.4296 36.6673 40.4296C36.5483 40.4296 36.5315 40.3666 36.5763 40.0867L36.6309 39.7452L36.2124 39.6486C35.8737 39.5717 35.7267 39.5801 35.4426 39.6934C35.1179 39.8236 35.0829 39.8222 34.9807 39.6836C34.8786 39.5423 34.8016 39.5507 33.9072 39.8026C32.8015 40.1119 32.635 40.1273 32.558 39.9258C32.4712 39.7004 32.6966 39.5898 33.9002 39.2721C34.8128 39.0328 34.9989 38.9558 34.9667 38.8327C34.9065 38.6017 35.1767 38.417 36.3244 37.9019C37.1725 37.5212 37.3937 37.3855 37.4398 37.2105C37.472 37.0915 37.5266 36.067 37.563 34.9347L37.6274 32.8759L37.1599 32.9711C36.7988 33.0453 36.6827 33.0425 36.6547 32.9571C36.6351 32.8969 36.5497 32.8479 36.4657 32.8479C36.3803 32.8479 36.2712 32.8059 36.2208 32.7569C36.1592 32.6954 35.8009 32.8227 35.1067 33.153C34.5035 33.4399 33.8932 33.6639 33.6189 33.7003C33.185 33.7577 33.1542 33.7493 33.1542 33.5715C33.1542 33.4511 33.262 33.314 33.444 33.2034L33.7337 33.0257H33.4859C33.1948 33.0257 33.0717 32.8031 33.2606 32.6142C33.4328 32.442 34.7442 31.8822 35.9647 31.4595C36.8842 31.1404 36.9654 31.1264 37.2341 31.2454C37.3909 31.3153 37.535 31.4329 37.5518 31.5071C37.57 31.5827 37.6148 31.3727 37.654 31.0424C37.6918 30.7121 37.703 30.3874 37.6764 30.3188C37.5924 30.1005 36.9696 30.0683 36.4279 30.2544C36.155 30.3482 35.8583 30.407 35.7687 30.3832C35.6805 30.3608 35.4314 30.4028 35.2173 30.4798C34.6924 30.6645 34.4923 30.6561 34.4923 30.449C34.4923 30.2978 34.4377 30.2852 33.9254 30.3272C33.5307 30.358 33.3362 30.3384 33.29 30.2628C33.1598 30.0529 33.4761 29.9283 34.4867 29.7898C35.2844 29.6806 35.5378 29.612 35.6469 29.4748C35.8429 29.2271 36.127 29.1011 36.4811 29.1011C36.6603 29.1011 36.9234 29.0088 37.1151 28.8786C37.2957 28.7554 37.5028 28.6547 37.5742 28.6547C37.6736 28.6547 37.703 28.5287 37.703 28.12C37.703 27.7113 37.6722 27.584 37.5742 27.584C37.5028 27.584 37.4133 27.6385 37.3741 27.7029C37.2341 27.9339 33.7617 29.4161 33.5503 29.3335C33.3026 29.2397 33.4272 29.013 33.8456 28.7946C34.1662 28.6281 34.2207 28.5735 34.0682 28.5693C33.931 28.5679 33.868 28.5119 33.868 28.3915C33.868 28.26 33.9842 28.1816 34.3593 28.0626C34.7596 27.9367 34.8408 27.8779 34.8002 27.7491C34.7638 27.6329 34.8324 27.5392 35.0451 27.4146C35.2075 27.3194 35.4006 27.1823 35.4734 27.1109C35.5476 27.0381 36.099 26.8282 36.6995 26.6434C37.773 26.3117 37.7926 26.3019 37.7926 26.043C37.7926 25.8092 37.7688 25.7869 37.5742 25.8358C37.4538 25.8666 37.0228 26.092 36.6155 26.3369C36.2082 26.5804 35.8051 26.782 35.7183 26.782C35.5364 26.782 35.5098 26.5189 35.6749 26.3383C35.7351 26.2711 35.5252 26.4013 35.2061 26.6294C33.8708 27.5826 33.7001 27.6903 33.6077 27.6343C33.3026 27.4454 33.8568 26.88 35.0465 26.1676C35.3362 25.994 35.3712 25.9366 35.3264 25.7113C35.2816 25.4901 35.3166 25.4286 35.5714 25.2732C35.7337 25.1738 35.9898 25.0675 36.1396 25.0353C36.288 25.0045 36.6057 24.8953 36.8436 24.7945C37.2005 24.6434 37.3083 24.6294 37.4524 24.7204C37.7254 24.8897 37.8821 24.698 37.8821 24.1941C37.8821 23.8302 37.8541 23.763 37.6806 23.7154C37.3027 23.6147 36.8072 23.6594 36.1368 23.8568C35.6232 24.0079 35.4286 24.0317 35.3082 23.9562C35.1837 23.8792 35.0759 23.903 34.7988 24.0709C34.6056 24.1871 34.3817 24.2837 34.3019 24.2837C34.141 24.2851 33.868 23.9226 33.868 23.7098C33.868 23.5111 35.5462 22.4418 36.747 21.8763L37.7884 21.3851L37.7898 21.0408C37.7926 20.7105 37.7842 20.6993 37.5476 20.7594C37.3447 20.8098 35.2271 21.2605 33.6021 21.5992C33.1402 21.6958 32.8869 21.602 32.8869 21.3347C32.8869 21.1163 33.2844 20.9344 34.7428 20.4879C35.8961 20.1352 36.4321 19.9519 36.901 19.7489L37.2131 19.6132L36.9458 19.5614C36.733 19.5208 36.6771 19.4648 36.6771 19.2884C36.6771 19.1079 36.7694 19.0211 37.1683 18.8252L37.6596 18.5844L37.3741 18.5257C37.0941 18.4669 36.9402 18.2807 37.041 18.1198C37.069 18.075 37.2495 17.9574 37.4426 17.8594C37.7954 17.6789 37.8877 17.4578 37.6932 17.2632C37.6204 17.1904 37.4832 17.3108 37.1795 17.7139C36.4699 18.653 36.1928 18.3129 36.8212 17.2758C37.1263 16.7719 38.0067 15.4185 38.1145 15.287C38.1299 15.2688 38.2054 15.2786 38.2838 15.3079C38.3902 15.3485 38.4042 15.4017 38.3398 15.5179C38.2712 15.6411 38.3006 15.6928 38.491 15.7768C38.6225 15.8342 39.0004 16.1099 39.3307 16.3884C39.955 16.9133 40.0949 17.2128 39.7548 17.301C39.6386 17.3318 39.5771 17.4228 39.5771 17.5627C39.5771 17.8329 39.3615 17.921 39.0172 17.7909C38.8059 17.7111 38.6981 17.7181 38.4924 17.8245C38.183 17.9854 38.2362 18.1296 38.6029 18.1296C38.7681 18.1296 38.8898 18.1856 38.9248 18.2779C38.9794 18.4193 38.8885 18.5229 38.4504 18.8238C38.3076 18.9204 38.3468 18.9301 38.7121 18.884C38.9486 18.8546 39.1894 18.8686 39.2482 18.9148C39.3125 18.9651 39.6288 18.9679 40.0585 18.919C40.6646 18.8518 40.7975 18.863 40.9963 18.9945C41.1222 19.0799 41.2804 19.1569 41.3448 19.1681C41.6233 19.2115 41.7171 19.2968 41.7171 19.504C41.7171 19.6258 41.6751 19.7517 41.6219 19.7839C41.5701 19.8161 41.0397 19.8987 40.4434 19.9687C39.3965 20.0904 38.8297 20.271 39.4945 20.271C39.8948 20.271 40.2195 20.4949 40.1845 20.7468C40.1691 20.8518 40.0067 21.0352 39.8234 21.1541C39.5225 21.3487 39.5057 21.3795 39.6456 21.4816C39.8122 21.602 39.7408 21.7364 39.5015 21.7518C39.097 21.7756 39.041 21.7966 39.041 21.9183C39.041 21.9911 39.1516 22.0779 39.2873 22.1087C39.4217 22.1409 39.6037 22.2304 39.6918 22.306C39.801 22.4012 40.2237 22.4824 41.0173 22.5593C41.6583 22.6223 42.2391 22.7189 42.3063 22.7763C42.4771 22.9162 42.4631 23.2074 42.2839 23.2759C42.2041 23.3067 41.5365 23.2634 40.8031 23.178C40.0683 23.094 39.4483 23.045 39.4245 23.0688C39.3769 23.1164 39.6135 23.1584 40.5582 23.2759C41.1264 23.3459 41.1376 23.3529 41.1376 23.6147V23.8834L40.5582 23.8764C40.2391 23.8722 39.6568 23.8526 39.2649 23.8316L38.5511 23.7938L38.5232 24.1283C38.505 24.3509 38.5329 24.4628 38.6071 24.4628C38.6673 24.4628 38.8031 24.5426 38.908 24.6406C39.0382 24.7637 39.3069 24.8463 39.7716 24.9051C40.3315 24.9765 40.5372 25.0521 40.9921 25.3544C41.4036 25.6273 41.5393 25.7687 41.5393 25.9268C41.5393 26.0612 41.6023 26.1536 41.7171 26.1829C41.9228 26.2375 41.9522 26.4461 41.7731 26.5944C41.4315 26.8786 38.9122 26.0542 38.8003 25.6231C38.7737 25.5237 38.6981 25.444 38.6295 25.444C38.5357 25.444 38.5064 25.6021 38.5064 26.113C38.5064 26.7218 38.5218 26.782 38.6841 26.782C38.7835 26.782 38.8633 26.7246 38.8633 26.6532C38.8633 26.4293 39.0158 26.4153 39.8192 26.565C40.6884 26.7274 40.9151 26.817 40.9151 27.0017C40.9151 27.0689 41.0355 27.2453 41.1824 27.3922C41.4805 27.6903 41.5211 27.8933 41.3084 28.0122C41.1922 28.0766 41.2188 28.113 41.4539 28.211C41.7703 28.3426 42.2531 28.7176 42.2531 28.8338C42.2531 28.8744 42.1398 28.9332 42.0012 28.964C41.7353 29.0214 40.3287 28.4839 39.3279 27.9423C38.5301 27.5112 38.5064 27.528 38.5064 28.5161C38.5064 28.9794 38.5357 29.3755 38.5735 29.3951C38.6099 29.4161 38.9808 29.3811 39.3979 29.3167C40.4546 29.1543 40.5666 29.1585 40.6212 29.3685C40.652 29.486 40.7429 29.5476 40.8857 29.5476C41.1726 29.5476 41.4497 29.7002 41.4497 29.8569C41.4497 29.9269 41.3602 30.0459 41.251 30.1215C41.0607 30.2558 41.0676 30.26 41.4777 30.26C41.9452 30.26 42.095 30.4196 41.9088 30.7177C41.822 30.8577 41.8318 30.8857 41.9662 30.8857C42.1565 30.8857 42.3413 31.0494 42.3413 31.2174C42.3413 31.5967 41.3 31.4511 39.0186 30.7555L38.5959 30.6253V31.1572C38.5959 31.6666 38.6043 31.6876 38.8241 31.6876C39.2635 31.6876 39.85 31.8892 40.0137 32.0977C40.1201 32.2335 40.3133 32.3273 40.568 32.3664C41.0844 32.4448 41.272 32.5498 41.272 32.7569C41.272 32.9207 41.3644 33.195 41.5659 33.6303C41.6415 33.7898 41.6303 33.8654 41.5155 33.9802C41.384 34.1104 41.3 34.1146 40.7177 34.011C40.3594 33.948 39.7618 33.808 39.3895 33.7017L38.7107 33.5057L38.6043 39.8488L38.8605 40.0867C39.0466 40.2589 39.2551 40.3428 39.6162 40.3876C40.2041 40.4618 40.3077 40.5878 40.1495 41.0399C40.0263 41.3968 39.899 41.4275 39.062 41.3044L38.6799 41.2484L38.7051 42.5962L38.7289 43.9454L39.6652 44.3051C40.1803 44.5039 40.7024 44.732 40.8255 44.8118C40.9487 44.8916 41.2762 44.9826 41.5533 45.012C42.2027 45.0833 42.3217 45.1323 42.3945 45.3591C42.4813 45.6334 42.2125 45.7803 41.6233 45.7803C41.1376 45.7803 41.1194 45.7887 41.1586 45.9959C41.216 46.2968 40.9403 46.4214 40.2125 46.427C39.7422 46.4298 39.5225 46.3808 39.1502 46.1918C38.8087 46.0197 38.6715 45.9861 38.6463 46.0687C38.5553 46.3668 38.2768 63.1104 38.2894 67.5009C38.2936 68.776 38.3468 70.6025 38.4098 71.5598C38.6001 74.5046 38.5567 74.3926 38.5567 74.3926C38.2418 74.3311 36.6995 74.471 36.4391 74.3045ZM39.4805 44.7656C39.4595 44.7474 39.2719 44.6467 39.0634 44.5417L38.6841 44.3499V44.5753C38.6841 44.7838 38.7149 44.7992 39.1012 44.7992C39.3293 44.7992 39.5001 44.7852 39.4805 44.7656ZM37.2355 38.4995C37.3937 38.4576 37.4357 38.382 37.4357 38.144C37.4357 37.7969 37.4189 37.7899 37.0704 37.9957C36.9052 38.0937 36.8114 38.2224 36.8114 38.3526C36.8114 38.5625 36.8926 38.5919 37.2355 38.4995ZM37.2943 27.1739C37.3727 27.1445 37.4357 27.0871 37.4357 27.0479C37.4357 26.9583 37.0927 27.0437 37.0284 27.1487C36.971 27.2411 37.0927 27.2509 37.2943 27.1739ZM38.8745 20.989C39.0998 20.8882 39.2062 20.8 39.1292 20.779C39.0564 20.7594 38.8591 20.6979 38.6911 20.6419C38.5218 20.5859 38.3678 20.5579 38.3482 20.5775C38.309 20.6167 38.4126 21.1625 38.4588 21.1625C38.4742 21.1625 38.6603 21.0842 38.8745 20.989ZM44.9572 74.387C44.939 74.1253 45.0943 72.8769 45.3351 67.9908C45.3631 67.4268 45.4232 64.9383 45.4694 62.4609C45.5142 59.9836 45.5772 56.7281 45.6094 55.2277L45.6668 52.4985L45.4694 52.4467C45.2707 52.3949 44.7766 52.5195 44.6213 52.6608C44.5737 52.7042 44.4659 52.7378 44.3805 52.7378C44.2938 52.7378 43.8977 52.8414 43.4974 52.9674C42.8004 53.1885 42.7598 53.1913 42.4603 53.0499C42.2797 52.9646 42.1677 52.854 42.1929 52.7882C42.2237 52.7084 42.1412 52.6776 41.9102 52.6846C41.6401 52.6916 41.5841 52.6636 41.5841 52.5153C41.5841 52.3557 41.6765 52.3263 42.4813 52.2382C43.559 52.1206 44.3008 51.9512 44.4645 51.7875C44.5387 51.7147 44.7892 51.6685 45.1139 51.6685H45.6416V50.8204C45.6416 50.3543 45.629 49.9736 45.6122 49.9736C45.5954 49.9736 45.2763 50.1065 44.9012 50.2703C44.4085 50.483 44.2462 50.5936 44.3162 50.6636C44.4421 50.7882 44.3246 50.9813 44.1608 50.9183C44.0922 50.8917 43.6765 50.9547 43.2371 51.0569C42.3959 51.2528 42.0572 51.2346 42.2489 51.0023C42.3077 50.9323 42.533 50.8064 42.75 50.7238C42.9669 50.6412 43.1447 50.5166 43.1447 50.4467C43.1447 50.3767 43.3644 50.2227 43.6331 50.1037C43.9019 49.9848 44.1972 49.8126 44.2882 49.7217C44.4883 49.5215 45.3491 49.3941 45.524 49.5411C45.5898 49.5957 45.6416 49.6013 45.6416 49.5537C45.6416 49.5061 45.5478 49.4179 45.4344 49.3564C45.2539 49.2612 44.9544 49.3158 43.2454 49.758C41.7423 50.1457 41.2398 50.2451 41.1614 50.1653C41.0019 50.0072 41.167 49.8966 41.9074 49.6615C42.2685 49.5467 42.4967 49.4487 42.4141 49.4459C42.1579 49.4333 42.137 49.2612 42.3665 49.033C42.5946 48.8035 43.2343 48.6356 43.8739 48.6356C44.0642 48.6356 44.3106 48.5796 44.4183 48.511C44.7178 48.3248 45.2763 48.2493 45.4274 48.3752C45.6052 48.5222 45.6528 48.4466 45.5898 48.1261L45.5352 47.8574L45.0006 48.0225C44.3413 48.2283 44.0544 48.2325 43.8417 48.0407C43.6877 47.9008 43.6247 47.9092 42.8326 48.1807C41.969 48.4746 41.8066 48.4774 41.8066 48.1975C41.8066 48.0827 41.9858 47.9693 42.4533 47.7888C42.8088 47.6516 43.1671 47.4823 43.2482 47.4123C43.3294 47.3423 43.5898 47.2275 43.8277 47.1576C44.0656 47.0876 44.5499 46.9 44.9026 46.7405L45.5464 46.4494L45.5492 45.5802C45.552 45.1015 45.5394 44.711 45.524 44.711C45.5086 44.711 45.1993 44.8104 44.8396 44.9336C44.4785 45.0567 44.109 45.1561 44.018 45.1561C43.8053 45.1561 43.7283 44.9532 43.8529 44.7194C43.9341 44.5683 43.9285 44.5459 43.8151 44.5893C43.7395 44.6173 43.6205 44.5949 43.552 44.5375C43.454 44.4549 43.328 44.4829 42.9767 44.6607C42.4295 44.9378 42.1635 44.956 42.1635 44.7166C42.1635 44.5949 42.3637 44.4311 42.8452 44.1596C43.6485 43.7061 44.4407 43.254 45.0859 42.8817L45.5506 42.6144L45.552 41.923C45.5534 41.2148 45.5002 41.1252 45.1965 41.3212C45.0887 41.3912 45.1027 41.4079 45.2693 41.4093C45.6304 41.4107 45.4554 41.7047 44.9362 41.9678C44.4519 42.2127 44.284 42.2295 44.4631 42.0126C44.5387 41.9216 44.4757 41.9006 44.1566 41.9118C43.8781 41.9216 43.7409 41.8852 43.7059 41.7956C43.6331 41.6067 43.7451 41.5283 44.6255 41.1504C45.1587 40.9209 45.4554 40.7389 45.5296 40.5962C45.6276 40.4086 45.6934 39.4485 45.6094 39.4485C45.5898 39.4485 45.4051 39.5087 45.1965 39.5815C44.6549 39.7732 44.5723 39.7564 44.5723 39.4541C44.5723 39.2343 44.5317 39.1882 44.3274 39.1644C44.1832 39.1476 44.0712 39.0734 44.0544 38.9852C44.0208 38.8089 44.3357 38.6269 45.1937 38.3274C45.7424 38.1343 45.7578 38.1231 45.4484 38.1161C45.2679 38.1133 45.0565 38.0475 44.9796 37.9691C44.8116 37.8025 44.806 37.734 44.9432 37.5968C45.0202 37.5184 45.0202 37.4624 44.9404 37.3673C44.8144 37.2147 44.8914 36.9768 45.1055 36.862C45.2861 36.7654 45.2497 36.3259 45.0607 36.3259C44.8984 36.3259 44.834 36.1006 44.9572 35.962C45.0426 35.8655 45.0356 35.8641 44.9194 35.9509C44.841 36.0096 44.6003 36.2798 44.3847 36.5513C44.1104 36.897 43.9383 37.037 43.8137 37.0202C43.4862 36.974 43.5856 36.7304 44.2672 35.9243C45.8319 34.0726 45.769 34.1314 46.1762 34.1705C46.4702 34.1971 46.5891 34.2671 46.7837 34.5218C46.9166 34.6954 47.2553 35.0915 47.5381 35.4008C47.8194 35.7115 48.0503 36.018 48.0503 36.0838C48.0503 36.2252 47.5926 36.6829 47.4513 36.6829C47.3253 36.6829 47.4079 37.0034 47.5689 37.1363C47.7368 37.2763 47.727 37.6318 47.5521 37.699C47.4751 37.7284 47.3197 37.7298 47.2078 37.7018C47.0524 37.6626 46.9922 37.6948 46.9558 37.8361C46.9166 37.9845 46.8369 38.0209 46.5429 38.0209H46.1776V40.5752L47.3141 40.7851C47.9398 40.9013 48.5416 41.0287 48.6522 41.0678C48.9195 41.1616 48.9335 41.5843 48.6718 41.6529C48.4898 41.7005 48.4898 41.7005 48.676 41.832C48.7893 41.9118 48.8523 42.0378 48.8355 42.1553C48.8103 42.3331 48.7613 42.3457 48.1847 42.3303C47.65 42.3149 46.9138 42.1455 46.333 41.902C46.1916 41.8432 46.1776 41.9118 46.1776 42.683V43.5284L46.6003 43.6361C47.3099 43.8181 47.9607 44.1596 47.9607 44.3499C47.9607 44.4423 47.9104 44.5347 47.8502 44.5557C47.7886 44.5781 47.9384 44.6523 48.1847 44.7222C48.5654 44.8314 48.634 44.8846 48.6592 45.0931C48.6788 45.2653 48.6396 45.3507 48.5248 45.3885C48.4352 45.4164 48.2743 45.4822 48.1651 45.534C47.9789 45.6236 47.4065 45.5956 46.6003 45.4584L46.2658 45.401V46.3052C46.2658 47.2611 46.3092 47.3423 46.6493 47.0246C46.7571 46.9238 46.9054 46.8608 46.9796 46.8846C47.0538 46.9084 47.4149 47.0428 47.783 47.1856L48.452 47.4417L48.4338 47.8308C48.4044 48.4592 48.3806 48.4816 47.8488 48.4102C47.5926 48.3766 47.1434 48.2521 46.8537 48.1345C46.5625 48.0183 46.3092 47.9217 46.2896 47.9217C46.2714 47.9217 46.2672 48.0505 46.2826 48.2087C46.3092 48.4802 46.3484 48.5082 47.0188 48.7447C47.4079 48.8833 47.8754 49.0065 48.0573 49.0218C48.3988 49.0484 48.8537 49.2878 48.8537 49.4403C48.8537 49.4879 48.8033 49.5285 48.7417 49.5299C48.6801 49.5313 48.7403 49.6013 48.8761 49.6839C49.0259 49.7776 49.121 49.9148 49.121 50.038C49.121 50.2843 48.9293 50.3011 48.4464 50.0995C48.2603 50.0212 47.9244 49.9246 47.7004 49.8854C47.4751 49.8448 47.0818 49.7287 46.8243 49.6265L46.3554 49.4389V49.793C46.3554 50.1079 46.3834 50.1541 46.6003 50.2017C47.0272 50.2955 47.0846 50.3277 47.128 50.49C47.1518 50.5838 47.3519 50.714 47.6094 50.805C48.0601 50.9659 48.1931 51.1325 47.8698 51.1325C47.7592 51.1325 47.6556 51.2192 47.6038 51.3564C47.4975 51.6363 47.3071 51.6363 46.8145 51.355C46.6017 51.2332 46.4086 51.1325 46.3862 51.1325C46.3638 51.1325 46.3582 51.3018 46.3722 51.509C46.3974 51.8463 46.4282 51.8911 46.6675 51.94C46.9852 52.0058 47.8348 52.4285 47.916 52.5601C47.9482 52.6105 48.1749 52.7546 48.4198 52.8792C49.0063 53.1759 48.9895 53.3956 48.3778 53.4348C48.1413 53.4502 47.8978 53.4222 47.839 53.3718C47.7788 53.3229 47.5535 53.2529 47.3379 53.2193C47.1014 53.1815 46.8676 53.0737 46.7515 52.9478C46.6451 52.833 46.5219 52.7392 46.4772 52.7392C46.3638 52.7392 46.424 63.8508 46.5485 65.9852C46.6017 66.9173 46.6591 68.3211 46.6745 69.1063C46.6913 69.8915 46.9348 72.261 46.9628 72.9244C47.0258 74.408 47.037 74.3745 47.037 74.3745C46.4674 74.3605 44.9572 74.387 44.9572 74.387ZM46.6941 44.7558C46.6801 44.7446 46.5779 44.6872 46.4674 44.6299C46.2924 44.5403 46.2658 44.5487 46.2658 44.6956C46.2658 44.8286 46.3148 44.8552 46.494 44.8216C46.6185 44.7964 46.7081 44.7684 46.6941 44.7558ZM46.8914 44.2646C46.8173 44.217 46.7165 44.1778 46.6675 44.1778C46.6185 44.1778 46.6395 44.217 46.7123 44.2646C46.7865 44.3121 46.8858 44.3513 46.9348 44.3513C46.9852 44.3513 46.9642 44.3121 46.8914 44.2646ZM45.3561 43.7117C45.5352 43.5326 45.4764 43.4598 45.2413 43.5676C45.1181 43.6235 45.0174 43.7019 45.0174 43.7439C45.0174 43.8545 45.2343 43.8349 45.3561 43.7117ZM45.6416 38.6871C45.6416 38.5849 45.6024 38.5709 45.4862 38.6297C45.4009 38.6745 45.2693 38.7319 45.1965 38.7599C45.1223 38.7865 45.1923 38.8131 45.3519 38.8159C45.5562 38.8215 45.6416 38.7837 45.6416 38.6871ZM46.7571 36.4141C46.6885 36.305 46.1776 36.0334 46.1776 36.1076C46.1776 36.1874 46.3862 36.3791 46.5359 36.4379C46.7431 36.5205 46.8173 36.5121 46.7571 36.4141ZM45.6038 35.8123C45.6556 35.7759 45.6766 35.6527 45.6486 35.5394L45.5968 35.3336L45.0733 35.8795L45.2903 35.8781C45.4107 35.8781 45.5506 35.8473 45.6038 35.8123ZM59.0667 74.3787C59.0667 74.3787 59.4502 71.4786 59.5188 70.8908C59.6587 69.6997 59.7679 68.2959 59.9093 65.8956C59.961 65.0124 60.0632 63.2867 60.136 62.0592C60.2088 60.8332 60.3291 57.9234 60.4019 55.593C60.4761 53.2627 60.5573 50.784 60.5825 50.0842C60.6343 48.6454 60.7014 48.7643 59.8547 48.8091C59.3704 48.8343 59.1115 48.6915 59.1115 48.4004C59.1115 48.1723 59.1087 48.1723 58.553 48.2325C58.2129 48.2703 57.5523 48.4704 56.8539 48.7461C55.9777 49.0932 55.688 49.173 55.6082 49.0918C55.4291 48.9141 55.646 48.7083 56.308 48.4312C56.6482 48.2884 56.9533 48.1457 56.9883 48.1135C57.0232 48.0813 56.6817 48.0561 56.2297 48.0561C55.4235 48.0561 55.4095 48.0519 55.4095 47.842C55.4095 47.6614 55.4767 47.6124 55.856 47.5131C56.2619 47.4081 57.8826 47.2191 59.8253 47.0512L60.5825 46.9854L60.6091 46.5235L60.6357 46.0603L60.3571 46.1666C60.1206 46.2548 60.0618 46.2492 59.9708 46.1246C59.8743 45.9945 59.8379 45.9917 59.6139 46.1093C59.4768 46.182 59.3032 46.217 59.229 46.189C59.1549 46.161 58.9743 46.2226 58.8274 46.3276C58.5838 46.5011 58.5474 46.5053 58.4201 46.3766C58.3081 46.2646 58.3011 46.2086 58.3865 46.1051C58.4607 46.0169 58.4649 45.9567 58.4019 45.9175C58.2647 45.8321 58.2871 45.5522 58.4425 45.4248C58.7126 45.1995 58.5586 45.1799 57.8406 45.3437C57.2766 45.4724 56.9295 45.499 56.3598 45.4556C55.5914 45.3968 55.4543 45.3157 55.5928 45.0008C55.6292 44.914 55.653 44.7992 55.6446 44.7446C55.6362 44.69 55.6838 44.6005 55.7496 44.5459C55.891 44.4283 58.0982 44.0574 58.3179 44.1148C58.4033 44.1372 58.7238 44.0966 59.0331 44.0252C59.3998 43.9412 59.6573 43.9245 59.7763 43.9776C59.8757 44.0224 60.1094 44.0406 60.2927 44.0182L60.6273 43.9776V42.5556L60.3375 42.6172C59.9484 42.7012 59.9232 42.7222 59.975 42.9167C60.0142 43.0693 59.9512 43.0889 59.32 43.1211C58.4844 43.1659 58.2185 43.1267 58.2185 42.9615C58.2185 42.7936 58.1107 42.802 56.9057 43.0623C55.8434 43.2918 55.632 43.2946 55.632 43.0777C55.632 42.9237 55.8812 42.8062 57.1044 42.3807C58.0016 42.07 58.1121 41.9286 57.3144 42.1148C56.6216 42.2757 56.6188 41.9048 57.3116 41.6375C57.7315 41.4765 57.751 41.4555 57.5887 41.3422C57.313 41.149 57.5089 40.9377 58.2199 40.6578C58.6202 40.501 58.8903 40.3372 58.9477 40.2183C59.0471 40.0111 60.2871 39.1798 60.4971 39.1798C60.5685 39.1798 60.6273 39.1196 60.6273 39.0468C60.6273 38.8425 60.4145 38.883 59.6853 39.2246C59.3186 39.3967 58.9911 39.5367 58.9575 39.5367C58.9239 39.5367 58.2199 39.8642 57.3927 40.2645C56.0127 40.9321 55.8784 40.9811 55.7468 40.8495C55.5453 40.648 55.6964 40.4884 56.4522 40.1077C57.0232 39.8208 57.2024 39.6038 56.9477 39.5115C56.7937 39.4541 56.9113 39.3449 57.5495 38.953C57.9568 38.7039 58.0212 38.6395 57.8182 38.6857C57.6699 38.7179 57.2738 38.911 56.9365 39.114C56.4634 39.3981 56.2283 39.4835 55.9162 39.4877C55.5341 39.4919 55.4935 39.4681 55.2499 39.1098C54.8329 38.4926 55.138 38.2056 55.6418 38.7445C55.9022 39.023 56.1681 39.0454 56.1681 38.7879C56.1681 38.7165 56.4648 38.473 56.8273 38.2462C57.2136 38.0055 57.5075 37.7578 57.5355 37.6472C57.5831 37.4666 57.6209 37.461 58.4257 37.517C59.1227 37.566 59.285 37.5534 59.3802 37.44C59.4418 37.3645 59.4782 37.2945 59.4586 37.2833C59.1087 37.0817 58.9855 37.0454 58.8078 37.0901C58.6902 37.1195 58.5712 37.1055 58.5432 37.0593C58.4593 36.9222 58.8595 36.6325 59.5789 36.3078C59.8547 36.1846 59.9093 35.969 59.6657 35.969C59.5775 35.969 59.348 36.0488 59.1563 36.1482C58.7798 36.3399 58.4411 36.3791 58.3543 36.2406C58.3235 36.1888 58.0548 36.2434 57.6923 36.3735C56.9813 36.6297 56.8063 36.6451 56.7321 36.4533C56.6635 36.2742 57.2514 35.7073 57.5285 35.6863C57.6377 35.6779 57.8896 35.6639 58.0856 35.6541C58.2815 35.6443 58.9337 35.4428 59.5342 35.2077L60.6273 34.7766V34.2587C60.6273 33.7647 60.6175 33.7395 60.4047 33.7395C60.2662 33.7395 60.1808 33.6891 60.1808 33.6051C60.1808 33.4329 59.5943 33.4218 59.4236 33.5925C59.257 33.7591 56.9379 34.631 56.6607 34.631C56.4956 34.631 56.4354 34.5834 56.4354 34.4547C56.4354 34.3315 56.5698 34.2083 56.8735 34.0558C57.1128 33.934 57.3242 33.8024 57.341 33.7647C57.3843 33.6667 57.9428 33.2594 58.2577 33.0956C58.5166 32.9613 58.5166 32.9585 58.3235 32.8563C58.2171 32.7989 58.1303 32.6744 58.1303 32.5792C58.1303 32.3147 58.4187 32.2069 58.8595 32.3063C59.0779 32.3552 59.2612 32.358 59.2892 32.3133C59.3606 32.1971 59.8113 32.0361 60.2704 31.9634L60.672 31.899L60.3305 31.7506C60.0604 31.633 59.996 31.5603 60.0184 31.3993C60.0408 31.2495 60.1332 31.1754 60.3823 31.1138L60.7168 31.0312V30.0781L60.4761 30.2362C60.2774 30.3664 60.262 30.3986 60.3921 30.4238C60.6399 30.4714 60.5153 30.6365 60.1318 30.7695C59.6671 30.9318 59.3354 30.8031 59.4124 30.4938L59.4656 30.2838L58.8329 30.414C58.3753 30.5092 58.1723 30.5176 58.1024 30.4476C58.0492 30.393 57.877 30.3496 57.7203 30.3496C57.4025 30.3496 57.2458 30.1243 57.4347 29.9381C57.6181 29.7576 59.1143 29.3489 59.5719 29.3545C60.0184 29.3587 60.2466 29.1599 59.8351 29.1263C59.3312 29.0829 59.1717 29.1081 58.2969 29.3671C57.8 29.5154 57.2878 29.6372 57.159 29.6372C57.0302 29.6372 56.7293 29.6974 56.4872 29.7716C55.8644 29.9605 55.5439 29.9465 55.5439 29.7324C55.5439 29.5406 55.7846 29.4356 57.5047 28.8814C58.0688 28.6995 58.5544 28.5119 58.5838 28.4629C58.6132 28.4153 58.6216 28.2866 58.6006 28.1774C58.5684 28.0108 58.6384 27.9423 59.0303 27.7589C59.2878 27.6385 59.6013 27.5336 59.7287 27.5252C59.8547 27.5182 60.1486 27.4608 60.3823 27.3992L60.8064 27.2872V26.5091C60.8064 25.5755 60.826 25.5867 59.6909 25.8148C59.25 25.903 58.728 25.9716 58.5306 25.9674C58.3347 25.9618 57.8462 26.043 57.4459 26.1466C56.7559 26.3257 56.4354 26.3257 56.4354 26.148C56.4354 26.1046 56.3724 26.0682 56.2954 26.0682C56.2031 26.0682 56.1653 26.0038 56.1835 25.8792C56.2059 25.7295 56.385 25.6287 57.047 25.3894C57.5047 25.2242 58.1975 25.0017 58.5852 24.8953C59.1479 24.7413 59.2892 24.6686 59.2892 24.5328C59.2892 24.4292 59.4012 24.3145 59.5789 24.2333C59.8687 24.1003 59.8687 24.1003 59.3914 24.1577C59.0793 24.1941 58.8413 24.1759 58.707 24.1045C58.5334 24.0121 58.4075 24.0317 57.8728 24.2361C57.2192 24.4852 57.0596 24.4782 57.0596 24.1969C57.0596 23.9646 57.7287 23.6049 59.2892 22.9946C60.0002 22.7161 60.6734 22.4516 60.784 22.4068C60.9268 22.3494 60.9842 22.2514 60.9842 22.0667C60.9842 21.8735 60.9338 21.7938 60.784 21.7546C60.5797 21.7 59.6993 22.0051 59.4894 22.2038C59.3662 22.32 59.3564 22.3242 58.3991 22.5859C58.0324 22.6853 57.6615 22.7679 57.5747 22.7679C57.3326 22.7679 57.3871 22.5104 57.6419 22.4474C57.8098 22.4054 57.8546 22.348 57.8154 22.2276C57.7804 22.1157 57.835 22.0177 57.9848 21.9197C58.2913 21.7182 59.7763 21.1975 60.4243 21.0632L60.9646 20.9526L61.0135 20.5901C61.0401 20.3913 61.0471 20.2136 61.0289 20.1954C61.0107 20.1772 60.882 20.2038 60.7448 20.2542C60.5209 20.3354 60.5153 20.3466 60.6944 20.3522C61.0429 20.3648 60.9114 20.5243 60.5041 20.5859C60.1136 20.6447 59.7357 20.5313 59.7357 20.3564C59.7357 20.3088 59.6433 20.2696 59.53 20.2696C59.418 20.2696 59.2836 20.229 59.2332 20.1772C59.1689 20.1142 59.0093 20.1422 58.7168 20.2668C58.4844 20.3676 58.2367 20.4487 58.1667 20.4487C58.0002 20.4487 58.0044 20.1436 58.1751 20.0023C58.2479 19.9421 58.3081 19.8021 58.3081 19.6929C58.3081 19.5334 58.4425 19.4326 59.0037 19.1695C59.3858 18.9903 59.7819 18.8434 59.8827 18.8434C59.9834 18.8434 60.1934 18.7986 60.3501 18.744C60.5895 18.66 60.6636 18.6698 60.8106 18.8028C60.9072 18.8896 61.001 18.9441 61.0205 18.9245C61.0765 18.8672 61.1885 17.8622 61.1395 17.8622C61.1157 17.8622 60.9296 17.921 60.7266 17.9924C60.5237 18.0638 60.3053 18.103 60.241 18.0778C60.178 18.054 60.0492 18.1184 59.954 18.2233C59.7581 18.4403 59.2192 18.6866 59.1017 18.6138C58.8735 18.4725 59.1087 18.152 60.1892 17.133C60.8316 16.5284 61.4376 16.0036 61.537 15.9658C61.6714 15.9154 61.7959 15.9672 62.0227 16.1659C62.1906 16.3143 62.4034 16.4346 62.4943 16.4346C62.7477 16.4346 63.9275 17.3934 63.9275 17.5991C63.9275 17.6943 63.8814 17.7727 63.8254 17.7727C63.7638 17.7727 63.7806 17.8384 63.8688 17.9364C64.0563 18.1422 64.0605 18.4501 63.8772 18.5201C63.8002 18.5495 63.6224 18.5145 63.4825 18.4417C63.3411 18.3689 63.1662 18.3311 63.0948 18.3591C62.9464 18.4165 62.4104 18.1016 61.9121 17.6635L61.579 17.371L61.6378 17.8077C61.6714 18.047 61.698 18.3577 61.698 18.4991C61.698 18.639 61.7413 18.7538 61.7959 18.7538C61.8491 18.7538 61.9947 18.8336 62.1192 18.9329C62.248 19.0337 62.4859 19.1121 62.6693 19.1135C62.8904 19.1163 63.2137 19.2493 63.7022 19.5404C64.2788 19.8833 64.4286 20.0176 64.4972 20.2542C64.5966 20.6041 64.4804 20.7622 64.1795 20.6867C64.0661 20.6573 63.621 20.4305 63.1913 20.1842C62.4132 19.7377 62.0087 19.6384 61.8043 19.8427C61.6756 19.9715 61.6616 20.3592 61.7875 20.3592C61.8365 20.3592 61.8757 20.2976 61.8757 20.2234C61.8757 19.9995 62.122 19.9715 62.6455 20.1352C63.1718 20.3018 63.3355 20.4963 63.0948 20.6727C62.938 20.786 62.8876 21.1625 63.0304 21.1625C63.0752 21.1625 63.1396 21.2465 63.1718 21.3487C63.2039 21.4509 63.3481 21.5754 63.4909 21.6244C63.649 21.679 63.7708 21.7994 63.8044 21.9281C63.8422 22.0807 63.9583 22.1717 64.2061 22.2458C64.612 22.3676 64.7561 22.509 64.6777 22.7119C64.5994 22.9176 64.2131 22.8939 63.649 22.6475C63.3859 22.5328 62.9044 22.3732 62.5811 22.2934C62.2578 22.2136 61.9261 22.1227 61.8449 22.0919C61.7329 22.0485 61.698 22.0863 61.698 22.2486C61.698 22.4222 61.7637 22.481 62.0381 22.5537C62.2662 22.6153 62.4272 22.6153 62.5209 22.5565C62.6903 22.4488 63.2039 22.5873 63.6434 22.8575C63.88 23.003 63.9331 23.0884 63.9107 23.2829C63.8884 23.4803 63.9415 23.5601 64.1949 23.707C64.472 23.8666 64.5098 23.9338 64.5266 24.2865C64.5602 24.9653 64.2788 25.0059 63.2291 24.4698C62.8932 24.2991 62.8358 24.2935 62.5685 24.4096C62.311 24.5216 62.3012 24.5384 62.4873 24.544C62.6147 24.5482 62.7127 24.6182 62.7407 24.7259C62.7659 24.8211 62.8834 24.9625 63.001 25.0395C63.1186 25.1164 63.2137 25.255 63.2137 25.3488C63.2137 25.4733 63.3887 25.5881 63.9051 25.8009C65.302 26.3761 65.3551 26.4055 65.3551 26.6014C65.3551 26.8436 65.127 26.9247 64.7995 26.8016C64.6134 26.7316 64.4776 26.7302 64.3306 26.7974C64.1543 26.8772 63.9667 26.8198 63.1354 26.4335C62.5937 26.1815 62.0283 25.9506 61.8785 25.9212L61.6084 25.8666V27.6036C61.6084 28.5581 61.6308 29.3615 61.6588 29.3881C61.7441 29.4734 62.0549 29.3531 62.0549 29.2355C62.0549 29.1725 61.9947 29.0732 61.9219 29.013C61.719 28.8436 61.8589 28.726 62.1752 28.7974C62.3292 28.8324 62.7169 28.9052 63.036 28.9584L63.6154 29.0564V29.4133C63.6154 29.7604 63.607 29.7702 63.2809 29.7968C63.0976 29.8121 62.9422 29.8723 62.9366 29.9311C62.9086 30.2138 62.9814 30.4154 63.1927 30.6379C63.4867 30.9486 63.3915 31.0494 62.987 30.8563C62.8148 30.7737 62.5643 30.7065 62.43 30.7065C62.297 30.7065 62.0577 30.6687 61.8981 30.6239L61.6084 30.5399V31.1152C61.6084 31.6442 61.6266 31.7002 61.8337 31.794C62.0213 31.8794 62.0773 31.8696 62.1766 31.7338C62.2872 31.5827 62.3516 31.5785 63.1536 31.6848C63.642 31.7506 64.0577 31.8514 64.1151 31.92C64.2495 32.0837 64.1557 32.2993 63.9079 32.3916C63.7274 32.4588 63.7442 32.4728 64.0633 32.5274C64.5294 32.6072 64.6665 32.6968 64.6847 32.9403C64.6959 33.0942 64.8065 33.1796 65.1606 33.3112C65.4153 33.4064 65.6659 33.5645 65.7177 33.6625C65.943 34.0824 65.3356 34.2195 64.3796 33.9648C63.9149 33.8402 63.8898 33.843 63.7652 34.0208C63.649 34.1873 63.5762 34.2013 63.0836 34.1509C62.7813 34.1202 62.325 34.0404 62.0703 33.9746L61.6084 33.8542V34.3861C61.6084 34.862 61.6252 34.9095 61.7651 34.8424C62.2438 34.61 64.3166 34.9837 64.8107 35.3924C64.9759 35.5282 65.2726 35.6149 65.8408 35.6933C66.7436 35.8165 66.7828 35.8305 66.7828 36.046C66.7828 36.2826 66.5994 36.4155 66.2733 36.4155C66.0004 36.4155 65.9864 36.4281 66.0899 36.5933C66.2285 36.8172 66.1011 37.0537 65.7918 37.1405C65.4699 37.2301 63.9611 37.2259 63.3159 37.1321C63.0052 37.0873 62.6833 36.9922 62.6035 36.9222C62.5223 36.8508 62.2634 36.7654 62.0283 36.7318L61.6 36.6703L61.6266 37.2259L61.6532 37.7829L62.1878 37.8921C62.847 38.0265 63.7498 38.417 63.7498 38.5681C63.7498 38.6311 63.8016 38.6073 63.8688 38.5149C63.9807 38.3624 64.0045 38.3722 64.2369 38.6773C64.5266 39.0566 64.7855 39.093 65.2894 38.8229C65.4713 38.7249 65.7526 38.6479 65.9122 38.6521C66.0718 38.6563 66.3083 38.6325 66.437 38.5989C66.6218 38.5513 66.7352 38.5961 66.9717 38.8075C67.3188 39.1182 67.2698 39.2232 66.7898 39.2036C66.5616 39.1952 66.3867 39.2469 66.2649 39.3603C66.1445 39.4737 65.9808 39.5227 65.7778 39.5059C65.4853 39.4835 65.4671 39.5003 65.3663 39.8768L65.26 40.2715L64.7771 40.2323C64.5112 40.2099 64.3138 40.2267 64.3404 40.2701C64.4104 40.3806 64.2005 40.6074 64.0283 40.6074C63.8912 40.6074 62.4733 39.8558 61.9429 39.5017L61.698 39.3379V40.5052L62.1654 40.6801C62.423 40.7767 63.0948 40.9825 63.6588 41.1378C64.7771 41.4485 64.9283 41.5283 64.8905 41.7914C64.8681 41.9384 64.9703 41.9958 65.5329 42.1567C66.1767 42.3401 66.2033 42.3569 66.2299 42.6368C66.2551 42.8957 66.2341 42.9265 66.0298 42.9265C65.9038 42.9265 65.8002 42.8873 65.8002 42.8412C65.8002 42.7488 64.7309 42.3919 64.4524 42.3919C64.3082 42.3919 64.2984 42.4157 64.3894 42.5626C64.472 42.6928 64.472 42.7628 64.3922 42.8593C64.3222 42.9433 64.318 43.0133 64.3782 43.0735C64.4286 43.1239 64.4426 43.2316 64.4118 43.3128C64.29 43.6291 62.1542 43.4304 61.8393 43.0749L61.67 42.8817L61.7274 43.1043C61.7581 43.2274 61.7847 43.555 61.7861 43.8335L61.7875 44.3387H63.6378C64.6553 44.3373 65.6855 44.3709 65.9248 44.4129C66.4189 44.4969 66.6204 44.7026 66.458 44.956C66.3699 45.0931 66.2243 45.1085 65.218 45.0833C63.5371 45.0413 63.1746 45.1841 64.2942 45.4472C65.211 45.6614 65.3524 45.7747 65.323 46.2716C65.2908 46.8343 65.2222 46.8776 64.5434 46.7671C64.2299 46.7153 63.6896 46.6733 63.3425 46.6733C62.6581 46.6733 62.3712 46.5459 62.4244 46.2674C62.4482 46.1456 62.3684 46.0519 62.1486 45.9385C61.9779 45.8517 61.8267 45.7803 61.8127 45.7803C61.7987 45.7803 61.7875 46.14 61.7875 46.5781V47.3745L62.0926 47.3255C62.3628 47.2821 63.894 47.4123 64.4412 47.5271C64.5504 47.5495 64.6413 47.6292 64.6413 47.7048C64.6413 47.8224 64.8009 47.8322 65.8688 47.779C66.9059 47.7286 67.1145 47.7398 67.2082 47.8532C67.3678 48.0463 67.2544 48.2577 66.9591 48.3234C66.8191 48.3542 66.6568 48.4368 66.5994 48.5068C66.5406 48.5782 66.4538 48.6356 66.4063 48.6356C66.3587 48.6356 66.2509 48.7209 66.1669 48.8245C66.0802 48.9309 65.859 49.04 65.6659 49.0708C65.3957 49.1156 65.3062 49.1758 65.267 49.341C65.1648 49.7748 64.6945 49.7384 64.0801 49.2472C63.7624 48.9939 63.3313 48.8133 63.0444 48.8133C62.9408 48.8133 62.9422 48.8399 63.0556 48.9701C63.2781 49.2234 63.3411 49.5271 63.1704 49.5271C62.9366 49.5271 62.5377 49.285 62.2942 48.9953C62.1682 48.8469 61.9975 48.7237 61.9121 48.7237C61.7707 48.7237 61.7637 48.8777 61.8197 50.8875C61.8519 52.0772 61.9191 54.8764 61.9681 57.1088C62.1248 64.356 62.2312 67.4744 62.367 68.8838C62.6077 71.3653 62.8428 74.3829 62.8428 74.3829C60.5055 74.4052 61.6 74.4472 59.0667 74.3787ZM59.8253 48.2395C59.8253 48.2171 59.7847 48.1751 59.7357 48.1443C59.6867 48.1149 59.6461 48.1317 59.6461 48.1835C59.6461 48.2367 59.6867 48.2787 59.7357 48.2787C59.7847 48.2787 59.8253 48.2605 59.8253 48.2395ZM60.6273 42.1245C60.6273 42.0742 60.5167 42.0378 60.3823 42.0406C60.1654 42.0462 60.157 42.056 60.3151 42.1245C60.5587 42.2281 60.6273 42.2281 60.6273 42.1245ZM62.2326 42.1245C62.1108 42.084 61.9303 42.0518 61.8309 42.0504L61.6532 42.0476L61.8309 42.1231C61.9303 42.1665 62.1108 42.1987 62.2326 42.1973L62.4565 42.1945L62.2326 42.1245ZM58.3739 41.2666C58.3431 41.2372 58.2661 41.2344 58.2017 41.2596C58.1317 41.289 58.1527 41.31 58.2563 41.3142C58.3501 41.3184 58.4033 41.2974 58.3739 41.2666ZM59.6195 41.1266C60.108 41.0357 60.213 40.9825 60.3235 40.7683L60.4537 40.5164L59.9834 40.7053C59.7245 40.8089 59.3116 40.9503 59.0667 41.0189C58.8218 41.0874 58.5796 41.1602 58.5306 41.1812C58.3347 41.2624 59.0821 41.2246 59.6195 41.1266ZM60.6273 39.839C60.6273 39.72 60.6035 39.7144 60.4929 39.8054C60.4201 39.8656 60.3599 39.9314 60.3599 39.9496C60.3599 39.9677 60.4201 39.9831 60.4929 39.9831C60.5671 39.9831 60.6273 39.9174 60.6273 39.839ZM63.9863 38.8956C63.8982 38.7529 63.8786 38.7487 63.8534 38.8704C63.8366 38.9488 63.8492 39.079 63.88 39.1602C63.9275 39.2819 63.9513 39.2875 64.0129 39.1854C64.0591 39.1126 64.0479 38.995 63.9863 38.8956ZM61.9149 38.6549C61.9415 38.6115 61.9037 38.5261 61.8309 38.466C61.7204 38.3736 61.698 38.3876 61.698 38.5443C61.698 38.7361 61.8239 38.8005 61.9149 38.6549ZM60.6273 36.8956V36.3064L60.3823 36.3679C60.0534 36.4505 60.0394 36.4757 60.2116 36.6675C60.3921 36.8662 60.4061 37.1293 60.2354 37.1293C60.101 37.1293 59.982 37.3449 60.0688 37.4316C60.0982 37.461 60.2354 37.4862 60.3753 37.4862C60.6273 37.4862 60.6273 37.4834 60.6273 36.8956ZM64.8191 36.1482C64.6973 36.109 64.4958 36.0768 64.374 36.0768H64.1501L64.374 36.1482C64.4958 36.1874 64.6973 36.2196 64.8191 36.2196H65.043L64.8191 36.1482ZM61.8757 35.969C61.8757 35.9201 61.8155 35.8795 61.7427 35.8795C61.6686 35.8795 61.6084 35.9201 61.6084 35.969C61.6084 36.018 61.6686 36.0586 61.7427 36.0586C61.8155 36.0586 61.8757 36.018 61.8757 35.969ZM63.8828 35.969C63.4867 35.8683 63.2851 35.8683 63.3481 35.969C63.3789 36.018 63.5706 36.053 63.7764 36.0474C64.1305 36.0376 64.1361 36.0334 63.8828 35.969ZM62.9464 33.4385C62.9464 33.3378 62.234 32.9361 62.0535 32.9361C61.8645 32.9361 61.8533 32.9529 61.9681 33.0676C62.136 33.2342 62.9464 33.5421 62.9464 33.4385ZM60.7168 29.591C60.7168 29.5182 60.6566 29.458 60.5825 29.458C60.3501 29.458 60.4257 29.633 60.6944 29.7184C60.707 29.7226 60.7168 29.6652 60.7168 29.591ZM60.1934 28.5931C60.3011 28.4615 60.2955 28.4503 60.1514 28.5049C60.0618 28.5385 59.9512 28.5651 59.9065 28.5651C59.8617 28.5651 59.8253 28.6057 59.8253 28.6547C59.8253 28.7974 60.059 28.7582 60.1934 28.5931ZM60.749 27.8079C60.8134 27.6399 60.7224 27.6413 60.4985 27.8107C60.3291 27.9395 60.3291 27.9409 60.5111 27.9409C60.6133 27.9409 60.721 27.8807 60.749 27.8079ZM62.3222 25.0087C62.3222 24.9667 62.2018 24.9065 62.0549 24.8771C61.6868 24.8043 61.6854 24.4726 62.0507 24.2557L62.3152 24.1003L62.0381 23.8358C61.8855 23.6902 61.726 23.5713 61.684 23.5713C61.6434 23.5713 61.6084 23.868 61.6084 24.2305V24.8911L61.9429 24.9793C62.1276 25.0283 62.2872 25.0731 62.2998 25.0773C62.3124 25.0829 62.3222 25.0521 62.3222 25.0087ZM60.8946 24.3215C60.8946 24.1941 60.8512 24.1059 60.7994 24.1227C60.7462 24.1409 60.7056 24.1843 60.7098 24.2193C60.714 24.2557 60.7168 24.3439 60.7168 24.418C60.7168 24.4922 60.756 24.5524 60.8064 24.5524C60.8554 24.5524 60.8946 24.4488 60.8946 24.3215ZM60.8946 23.4369C60.8946 23.3137 60.8652 23.2144 60.8274 23.2144C60.791 23.2144 60.7616 23.3137 60.7616 23.4369C60.7616 23.5601 60.791 23.6594 60.8274 23.6594C60.8652 23.6594 60.8946 23.5601 60.8946 23.4369ZM60.8232 21.3403C60.9114 21.3403 60.9842 21.3053 60.9842 21.2605C60.9842 21.2157 60.8246 21.2213 60.6203 21.2731C60.3725 21.3361 60.2941 21.3893 60.3739 21.4383C60.4397 21.4788 60.5307 21.4732 60.5783 21.4257C60.6245 21.3795 60.735 21.3403 60.8232 21.3403ZM61.0485 19.413C61.0191 19.3836 60.9422 19.3808 60.8778 19.406C60.8064 19.4354 60.8288 19.4564 60.9324 19.4606C61.0261 19.4648 61.0793 19.4438 61.0485 19.413ZM61.8001 16.5914C61.698 16.4892 61.4936 16.5886 61.565 16.7048C61.5916 16.7481 61.6756 16.7607 61.7511 16.7314C61.8407 16.6964 61.8575 16.6488 61.8001 16.5914Z" fill="white"/>
</g>
<path d="M19.853 85.6721V77.8734H23.1841C23.7775 77.8734 24.2926 77.9826 24.7293 78.1981C25.1688 78.4109 25.5089 78.7188 25.7482 79.1219C25.9861 79.5222 26.1065 80.0008 26.1065 80.5607C26.1065 81.1317 25.9749 81.6244 25.7146 82.0387C25.4529 82.4502 25.089 82.7581 24.6229 82.9624L26.2353 85.6721H24.1862L22.7978 83.2423H21.6277V85.6721H19.853ZM21.6053 81.7531H22.949C23.3885 81.7531 23.7244 81.651 23.9567 81.4452C24.1918 81.2409 24.3094 80.9498 24.3094 80.5719C24.3094 80.1912 24.1918 79.9001 23.9567 79.6985C23.7244 79.4942 23.3885 79.3906 22.949 79.3906H21.6053V81.7531Z" fill="white"/>
<path d="M27.5947 85.6721V77.8734H32.7229V79.3682H29.3582V80.9806H32.4206V82.4641H29.3582V84.1661H32.8405V85.6721H27.5947Z" fill="white"/>
<path d="M34.2448 85.6721V77.8734H37.3295C38.1539 77.8734 38.8747 78.0386 39.4905 78.3661C40.1091 78.6908 40.5892 79.1485 40.9293 79.7377C41.2722 80.3241 41.4444 81.0016 41.4444 81.7699C41.4444 82.5509 41.2722 83.2339 40.9293 83.819C40.5892 84.4012 40.1091 84.8575 39.4905 85.185C38.8747 85.5097 38.1539 85.6721 37.3295 85.6721H34.2448ZM36.0195 84.0429H37.2959C37.7578 84.0429 38.1637 83.9505 38.5108 83.763C38.8607 83.5726 39.1336 83.3081 39.3281 82.968C39.5255 82.6251 39.6249 82.2262 39.6249 81.7699C39.6249 81.3109 39.5255 80.9134 39.3281 80.5775C39.1336 80.2388 38.8593 79.9756 38.5052 79.7881C38.1539 79.5977 37.7438 79.5026 37.2735 79.5026H36.0195V84.0429Z" fill="white"/>
<path d="M44.4291 85.6721L41.921 77.8734H43.8021L44.5523 80.2472L45.3753 82.8113L46.2654 80.2472L47.0996 77.8734H48.7847L49.6189 80.2472L50.5202 82.8448L51.3544 80.2472L52.1046 77.8734H53.9745L51.4552 85.6721H49.7197L47.945 80.6279L46.1758 85.6721H44.4291Z" fill="white"/>
<path d="M58.6196 85.8288C57.8093 85.8288 57.0913 85.6581 56.4642 85.3138C55.8372 84.9667 55.3459 84.4894 54.9918 83.8806C54.6405 83.2689 54.4656 82.5649 54.4656 81.77C54.4656 80.9792 54.6405 80.2794 54.9918 79.6705C55.3459 79.0589 55.8372 78.5816 56.4642 78.2373C57.0913 77.8902 57.8093 77.7167 58.6196 77.7167C59.437 77.7167 60.1564 77.8902 60.7806 78.2373C61.4035 78.5816 61.8919 79.0589 62.2474 79.6705C62.6057 80.2794 62.7849 80.9792 62.7849 81.77C62.7849 82.5649 62.6057 83.2689 62.2474 83.8806C61.8919 84.4894 61.4035 84.9667 60.7806 85.3138C60.1564 85.6581 59.437 85.8288 58.6196 85.8288ZM56.2683 81.77C56.2683 82.2402 56.3663 82.6545 56.565 83.0128C56.7665 83.3683 57.0423 83.6454 57.3936 83.847C57.7477 84.0457 58.1564 84.1437 58.6196 84.1437C59.0857 84.1437 59.4944 84.0457 59.8457 83.847C60.1998 83.6454 60.4755 83.3683 60.6743 83.0128C60.8716 82.6545 60.971 82.2402 60.971 81.77C60.971 81.3039 60.8716 80.8938 60.6743 80.5383C60.4755 80.18 60.1998 79.9029 59.8457 79.7041C59.4944 79.5026 59.0857 79.4018 58.6196 79.4018C58.1564 79.4018 57.7477 79.5026 57.3936 79.7041C57.0423 79.9029 56.7665 80.18 56.565 80.5383C56.3663 80.8938 56.2683 81.3039 56.2683 81.77Z" fill="white"/>
<path d="M67.7983 85.8288C66.988 85.8288 66.27 85.6581 65.6429 85.3138C65.0159 84.9667 64.5246 84.4894 64.1705 83.8806C63.8192 83.2689 63.6443 82.5649 63.6443 81.77C63.6443 80.9792 63.8192 80.2794 64.1705 79.6705C64.5246 79.0589 65.0159 78.5816 65.6429 78.2373C66.27 77.8902 66.988 77.7167 67.7983 77.7167C68.6157 77.7167 69.3351 77.8902 69.9593 78.2373C70.5822 78.5816 71.0706 79.0589 71.4261 79.6705C71.7844 80.2794 71.9636 80.9792 71.9636 81.77C71.9636 82.5649 71.7844 83.2689 71.4261 83.8806C71.0706 84.4894 70.5822 84.9667 69.9593 85.3138C69.3351 85.6581 68.6157 85.8288 67.7983 85.8288ZM65.447 81.77C65.447 82.2402 65.545 82.6545 65.7437 83.0128C65.9453 83.3683 66.221 83.6454 66.5723 83.847C66.9264 84.0457 67.3351 84.1437 67.7983 84.1437C68.2644 84.1437 68.6731 84.0457 69.0244 83.847C69.3785 83.6454 69.6542 83.3683 69.853 83.0128C70.0503 82.6545 70.1497 82.2402 70.1497 81.77C70.1497 81.3039 70.0503 80.8938 69.853 80.5383C69.6542 80.18 69.3785 79.9029 69.0244 79.7041C68.6731 79.5026 68.2644 79.4018 67.7983 79.4018C67.3351 79.4018 66.9264 79.5026 66.5723 79.7041C66.221 79.9029 65.9453 80.18 65.7437 80.5383C65.545 80.8938 65.447 81.3039 65.447 81.77Z" fill="white"/>
<path d="M73.2765 85.6721V77.8734H76.3612C77.1856 77.8734 77.9064 78.0386 78.5222 78.3661C79.1409 78.6908 79.6209 79.1485 79.961 79.7377C80.304 80.3241 80.4761 81.0016 80.4761 81.7699C80.4761 82.5509 80.304 83.2339 79.961 83.819C79.6209 84.4012 79.1409 84.8575 78.5222 85.185C77.9064 85.5097 77.1856 85.6721 76.3612 85.6721H73.2765ZM75.0512 84.0429H76.3276C76.7895 84.0429 77.1954 83.9505 77.5425 83.763C77.8924 83.5726 78.1653 83.3081 78.3599 82.968C78.5572 82.6251 78.6566 82.2262 78.6566 81.7699C78.6566 81.3109 78.5572 80.9134 78.3599 80.5775C78.1653 80.2388 77.891 79.9756 77.5369 79.7881C77.1856 79.5977 76.7755 79.5026 76.3053 79.5026H75.0512V84.0429Z" fill="white"/>
<path d="M24.689 92.6573V89.2478H25.3496L26.5588 91.0169L27.7681 89.2478H28.4175V92.6573H27.6505V90.6082L26.822 91.8119H26.2845L25.4616 90.6026V92.6573H24.689Z" fill="white"/>
<path d="M31.9883 92.7244C31.6328 92.7244 31.3179 92.6502 31.0422 92.5005C30.7693 92.3479 30.5551 92.1394 30.3984 91.8735C30.2444 91.6089 30.1688 91.3024 30.1688 90.9553C30.1688 90.6054 30.2444 90.2975 30.3984 90.0316C30.5551 89.767 30.7693 89.5599 31.0422 89.4101C31.3179 89.2576 31.6328 89.1806 31.9883 89.1806C32.3466 89.1806 32.6615 89.2576 32.9345 89.4101C33.206 89.5599 33.4187 89.767 33.5727 90.0316C33.7294 90.2975 33.8078 90.6054 33.8078 90.9553C33.8078 91.3024 33.7294 91.6089 33.5727 91.8735C33.4187 92.1394 33.206 92.3479 32.9345 92.5005C32.6615 92.6502 32.3466 92.7244 31.9883 92.7244ZM30.9582 90.9553C30.9582 91.1569 31.0002 91.336 31.087 91.4928C31.1765 91.6495 31.2969 91.7727 31.4509 91.8623C31.6076 91.949 31.7868 91.991 31.9883 91.991C32.1927 91.991 32.3718 91.949 32.5258 91.8623C32.6783 91.7727 32.7973 91.6495 32.8841 91.4928C32.9695 91.336 33.0128 91.1569 33.0128 90.9553C33.0128 90.751 32.9695 90.569 32.8841 90.4123C32.7973 90.2555 32.6783 90.1351 32.5258 90.0484C32.3718 89.9588 32.1927 89.914 31.9883 89.914C31.7868 89.914 31.6076 89.9588 31.4509 90.0484C31.2969 90.1351 31.1765 90.2555 31.087 90.4123C31.0002 90.569 30.9582 90.751 30.9582 90.9553Z" fill="white"/>
<path d="M35.5601 92.6573V89.2478H37.0828C37.4299 89.2478 37.7057 89.3318 37.9114 89.4997C38.1158 89.6649 38.2193 89.886 38.2193 90.1659C38.2193 90.3227 38.1829 90.4669 38.113 90.597C38.0416 90.7286 37.9408 90.8308 37.8106 90.9049C37.9744 90.9763 38.099 91.0827 38.1857 91.2241C38.2753 91.3626 38.3201 91.5208 38.3201 91.6999C38.3201 91.8945 38.2711 92.0624 38.1745 92.2038C38.0766 92.3465 37.9408 92.4585 37.7659 92.5397C37.5937 92.6181 37.3922 92.6573 37.1612 92.6573H35.5601ZM36.327 92.0414H37.0436C37.1962 92.0414 37.3152 92.0064 37.402 91.9351C37.4873 91.8651 37.5307 91.7643 37.5307 91.6327C37.5307 91.5068 37.4873 91.4074 37.402 91.336C37.3152 91.2618 37.1962 91.2241 37.0436 91.2241H36.327V92.0414ZM36.327 90.6362H36.9709C37.1192 90.6362 37.234 90.6026 37.3124 90.5354C37.3908 90.4655 37.4299 90.3675 37.4299 90.2443C37.4299 90.1212 37.3908 90.0288 37.3124 89.9644C37.234 89.8972 37.1192 89.8636 36.9709 89.8636H36.327V90.6362Z" fill="white"/>
<path d="M40.0486 92.6573V89.2478H40.8212V92.6573H40.0486Z" fill="white"/>
<path d="M42.7749 92.6573V89.2478H43.5475V91.9295H45.0423V92.6573H42.7749Z" fill="white"/>
<path d="M46.7134 92.6573V89.2478H48.9528V89.9028H47.486V90.6082H48.824V91.252H47.486V92.0022H49.0087V92.6573H46.7134Z" fill="white"/>
<path d="M55.187 92.6573V91.2856H53.849V92.6573H53.0764V89.2478H53.849V90.5578H55.187V89.2478H55.9596V92.6573H55.187Z" fill="white"/>
<path d="M59.5286 92.7244C59.1731 92.7244 58.8582 92.6502 58.5825 92.5005C58.3095 92.3479 58.0954 92.1394 57.9386 91.8735C57.7847 91.6089 57.7091 91.3024 57.7091 90.9553C57.7091 90.6054 57.7847 90.2975 57.9386 90.0316C58.0954 89.767 58.3095 89.5599 58.5825 89.4101C58.8582 89.2576 59.1731 89.1806 59.5286 89.1806C59.8869 89.1806 60.2018 89.2576 60.4747 89.4101C60.7463 89.5599 60.959 89.767 61.113 90.0316C61.2697 90.2975 61.3481 90.6054 61.3481 90.9553C61.3481 91.3024 61.2697 91.6089 61.113 91.8735C60.959 92.1394 60.7463 92.3479 60.4747 92.5005C60.2018 92.6502 59.8869 92.7244 59.5286 92.7244ZM58.4985 90.9553C58.4985 91.1569 58.5405 91.336 58.6273 91.4928C58.7168 91.6495 58.8372 91.7727 58.9912 91.8623C59.1479 91.949 59.3271 91.991 59.5286 91.991C59.7329 91.991 59.9121 91.949 60.0661 91.8623C60.2186 91.7727 60.3376 91.6495 60.4244 91.4928C60.5097 91.336 60.5531 91.1569 60.5531 90.9553C60.5531 90.751 60.5097 90.569 60.4244 90.4123C60.3376 90.2555 60.2186 90.1351 60.0661 90.0484C59.9121 89.9588 59.7329 89.914 59.5286 89.914C59.3271 89.914 59.1479 89.9588 58.9912 90.0484C58.8372 90.1351 58.7168 90.2555 58.6273 90.4123C58.5405 90.569 58.4985 90.751 58.4985 90.9553Z" fill="white"/>
<path d="M63.1002 92.6573V89.2478H63.7608L64.9701 91.0169L66.1794 89.2478H66.8288V92.6573H66.0618V90.6082L65.2332 91.8119H64.6958L63.8728 90.6026V92.6573H63.1002Z" fill="white"/>
<path d="M68.7817 92.6573V89.2478H71.0211V89.9028H69.5543V90.6082H70.8924V91.252H69.5543V92.0022H71.0771V92.6573H68.7817Z" fill="white"/>
<path d="M74.0531 92.7244C73.769 92.7244 73.5227 92.6768 73.3141 92.5845C73.1084 92.4921 72.9502 92.3591 72.8382 92.187C72.7263 92.012 72.6703 91.8063 72.6703 91.5711H73.4317C73.4317 91.7321 73.4877 91.8595 73.5996 91.9518C73.7116 92.0414 73.86 92.0862 74.0475 92.0862C74.2113 92.0862 74.34 92.0554 74.4338 91.991C74.5262 91.928 74.5738 91.8399 74.5738 91.7279C74.5738 91.6089 74.5178 91.5124 74.4058 91.4368C74.2938 91.3626 74.1161 91.2996 73.874 91.2464C73.4737 91.1611 73.1769 91.0323 72.9838 90.8601C72.7935 90.6894 72.6983 90.4654 72.6983 90.1883C72.6983 89.8748 72.8116 89.6285 73.0398 89.4493C73.2665 89.2702 73.5786 89.1806 73.9747 89.1806C74.2435 89.1806 74.4758 89.2282 74.6745 89.3206C74.8719 89.4101 75.0244 89.5389 75.1336 89.7069C75.2414 89.8748 75.296 90.075 75.296 90.3059H74.5514C74.5514 90.1533 74.501 90.0344 74.4002 89.9476C74.2994 89.858 74.1595 89.8132 73.9803 89.8132C73.8194 89.8132 73.6906 89.8454 73.594 89.9084C73.5003 89.9728 73.4541 90.0596 73.4541 90.1715C73.4541 90.2765 73.5059 90.3647 73.6108 90.4347C73.7144 90.506 73.8977 90.5732 74.1595 90.6362C74.585 90.737 74.8901 90.8713 75.0776 91.0393C75.268 91.2072 75.3631 91.4284 75.3631 91.6999C75.3631 92.0218 75.2456 92.2738 75.0104 92.4557C74.7781 92.6349 74.459 92.7244 74.0531 92.7244Z" fill="white"/>
</svg>
