<svg xmlns="http://www.w3.org/2000/svg" id="a" width="6.994in" height="3.277in" viewBox="0 0 503.563 235.926"><defs><style>.b{fill:#3a98cc;stroke-width:0px;}</style></defs><polygon class="b" points="143.356 54.883 143.356 145.31 54.733 145.31 54.733 160.835 158.883 160.835 158.883 68.255 143.356 54.883"></polygon><polygon class="b" points="15.527 75.386 79.441 20.469 105.086 42.545 105.086 22.075 79.441 0 .002 68.255 .002 160.835 15.527 160.835 15.527 75.386"></polygon><path class="b" d="M115.928,16.445v80.735H42.957v-30.91l-15.525,13.34v67.482h-.002v60.655c0,4.198-.243,7.177-.728,8.943-.689,2.539-2.006,3.987-3.935,4.361-.377.059-.771.094-1.187.099-2.469-.046-4.088-1.402-4.85-4.081-.775-2.725-1.208-7.442-1.3-14.148v-15.497H0v15.497c0,10.197,1.485,18.247,4.454,24.15,2.969,5.903,8.803,8.854,17.501,8.854.028,0,.055-.002.083-.002s.055.002.082.002c.219,0,.428-.014.643-.021,8.257-.224,14.008-3.857,17.234-10.92,1.97-4.313,2.954-10.156,2.954-17.531v-25.657h.002v-69.09h72.971v20.924h15.525V16.445h-15.522Z"></path><path class="b" d="M195.627,77.091h3.271v24.774c0,6.975-2.597,10.293-10.005,10.293-7.89,0-9.62-5.772-9.572-11.738h3.271c.098,2.935-.192,8.947,6.593,8.947,5.099,0,6.445-2.597,6.445-8.899v-23.377h-.002Z"></path><path class="b" d="M205.835,77.091h23.715v2.791h-20.444v12.411h19.146v2.789h-19.146v13.566h20.686v2.789h-23.957s0-34.346,0-34.346Z"></path><path class="b" d="M235.905,100.133c-.146,7.071,4.957,9.236,11.208,9.236,3.606,0,9.091-1.972,9.091-6.975,0-3.896-3.896-5.436-7.071-6.207l-7.648-1.876c-4.04-1.009-7.744-2.933-7.744-8.273,0-3.367,2.164-9.67,11.834-9.67,6.785,0,12.75,3.656,12.7,10.679h-3.271c-.194-5.243-4.523-7.89-9.38-7.89-4.473,0-8.613,1.732-8.613,6.831,0,3.224,2.405,4.569,5.196,5.243l8.369,2.07c4.861,1.299,8.899,3.415,8.899,9.043,0,2.357-.961,9.814-13.13,9.814-8.129,0-14.095-3.656-13.71-12.025h3.269v.002Z"></path><path class="b" d="M266.22,100.133c-.146,7.071,4.957,9.236,11.208,9.236,3.606,0,9.091-1.972,9.091-6.975,0-3.896-3.896-5.436-7.071-6.207l-7.648-1.876c-4.04-1.009-7.744-2.933-7.744-8.273,0-3.367,2.164-9.67,11.834-9.67,6.783,0,12.748,3.656,12.7,10.679h-3.271c-.194-5.243-4.523-7.89-9.38-7.89-4.475,0-8.613,1.732-8.613,6.831,0,3.224,2.405,4.569,5.196,5.243l8.369,2.07c4.861,1.299,8.899,3.415,8.899,9.043,0,2.357-.961,9.814-13.13,9.814-8.129,0-14.095-3.656-13.71-12.025h3.269v.002Z"></path><path class="b" d="M294.66,77.091h3.271v21.263c-.05,7.984,3.752,11.015,10.053,11.015,6.349,0,10.149-3.031,10.101-11.015v-21.263h3.271v21.985c0,7.071-3.798,13.084-13.372,13.084s-13.324-6.012-13.324-13.084v-21.985h0Z"></path><path class="b" d="M327.956,77.091h15.248c6.157,0,10.197,3.608,10.197,9.814s-4.04,9.814-10.197,9.814h-11.977v14.72h-3.271v-34.348h0ZM331.227,93.927h11.256c4.523,0,7.648-2.308,7.648-7.023s-3.125-7.023-7.648-7.023h-11.256v14.045Z"></path><path class="b" d="M182.289,120.145h11.077v15.301h22.953v-15.301h11.077v40.768h-11.077v-17.7h-22.953v17.7h-11.077v-40.768Z"></path><path class="b" d="M258.225,119.005c21.924,0,25.349,13.017,25.349,21.526s-3.425,21.523-25.349,21.523-25.349-13.017-25.349-21.523,3.425-21.526,25.349-21.526ZM258.225,154.289c10.048,0,13.589-7.422,13.589-13.759s-3.541-13.761-13.589-13.761-13.589,7.424-13.589,13.761,3.541,13.759,13.589,13.759Z"></path><path class="b" d="M288.6,120.145h11.078v23.411c0,3.997.171,10.734,10.334,10.734s10.334-6.737,10.334-10.734v-23.411h11.077v26.151c0,4.567-.57,15.758-21.411,15.758s-21.413-11.189-21.413-15.758v-26.151Z"></path><path class="b" d="M366.308,131.965c-.686-5.31-5.768-5.882-10.22-5.882-4.567,0-7.538,2.055-7.538,4.797,0,2.169,1.828,3.368,4.681,3.825l13.875,2.228c7.422,1.197,13.074,3.997,13.074,11.418,0,7.595-5.138,13.702-21.182,13.702-9.934,0-22.839-1.254-22.953-13.988h12.446c.114,5.596,5.71,6.566,10.506,6.566,5.195,0,8.735-1.542,8.735-5.081,0-3.141-2.514-3.997-6.909-4.681l-10.105-1.542c-7.081-1.084-13.932-3.198-13.932-11.533,0-9.078,7.422-12.789,20.212-12.789,8.392,0,20.839,1.427,21.581,12.96h-12.272v.002Z"></path><path class="b" d="M385.264,120.145h11.077v40.768h-11.077v-40.768Z"></path><path class="b" d="M438.474,120.145h10.734v40.768h-12.047l-22.212-28.435h-.114v28.435h-10.734v-40.768h12.844l21.413,28.435h.114v-28.435h.002Z"></path><path class="b" d="M482.779,138.19h20.784v22.724h-5.596l-1.483-4.738c-3.884,4.168-10.05,5.88-17.129,5.88-14.845,0-24.093-6.394-24.093-21.523,0-12.619,8.678-21.526,24.093-21.526,11.304,0,21.981,3.311,23.98,14.502h-12.333c-1.656-5.251-6.394-6.737-10.391-6.737-10.048,0-13.589,7.424-13.589,13.761s3.541,13.759,13.589,13.759c6.051,0,10.734-2.285,12.047-9.021h-9.878v-7.081h0Z"></path></svg>