<svg xmlns="http://www.w3.org/2000/svg" xmlns:xlink="http://www.w3.org/1999/xlink" id="Layer_1" x="0px" y="0px" viewBox="0 0 308 64" xml:space="preserve"><path fill="#FFFFFF" d="M52.169,48.614c-0.001,0.352-0.189,0.676-0.493,0.852L26.771,63.815c-0.429,0.246-0.955,0.246-1.384,0  L6.932,53.186c-0.429-0.246-0.693-0.703-0.693-1.197V25.663c0-0.468,0.251-0.902,0.658-1.137l13.153-7.575  c0.491-0.282,1.094-0.282,1.585,0l1.784,1.028c0.207,0.119,0.278,0.384,0.159,0.591c-0.038,0.066-0.094,0.122-0.16,0.16L9.7,26.627  v24.439l16.379,9.433l22.633-13.041v-2.41c0-0.339,0.367-0.551,0.661-0.382l2.301,1.319c0.309,0.178,0.5,0.507,0.499,0.864  L52.169,48.614z"></path><path fill="#FFFFFF" d="M46.368,43.354c0-0.264-0.141-0.508-0.37-0.64l-2.431-1.411c-0.211-0.122-0.481-0.049-0.602,0.162  c-0.038,0.067-0.059,0.142-0.059,0.219v2.43l-16.827,9.694l-10.112-5.819c-0.009-0.005-0.015-0.015-0.015-0.025V26.778  c-0.001-0.242-0.198-0.438-0.44-0.438c-0.076,0-0.151,0.02-0.218,0.059l-2.198,1.267c-0.374,0.216-0.605,0.616-0.605,1.048v20.298  c0,0.426,0.228,0.821,0.597,1.034l12.336,7.1c0.405,0.234,0.905,0.234,1.31,0l19.121-11.015c0.236-0.136,0.509-0.414,0.509-0.85  L46.368,43.354z"></path><path fill="#FFFFFF" d="M40.557,40.009l-0.004,1.924c-0.003,0.355-0.197,0.681-0.509,0.851l-13.31,7.663  c-0.406,0.234-0.905,0.234-1.311,0l-6.042-3.466c-0.404-0.232-0.653-0.663-0.653-1.129v-2.206c0-0.336,0.365-0.547,0.656-0.378  l6.695,3.841l11.016-6.351V38.34c0-0.243,0.197-0.44,0.44-0.44c0.077,0,0.154,0.021,0.221,0.06l2.431,1.409  C40.417,39.501,40.557,39.745,40.557,40.009"></path><path fill="#FFFFFF" d="M40.553,21.702c-0.002-0.355-0.197-0.681-0.509-0.851L21.471,10.176c-0.397-0.228-0.884-0.228-1.281,0  L0.583,21.477C0.223,21.686,0,22.069,0,22.486v26.027c0,0.422,0.226,0.811,0.591,1.022l2.258,1.301  c0.196,0.113,0.446,0.045,0.558-0.15c0.035-0.062,0.054-0.131,0.055-0.203V23.534l17.352-10.021l16.281,9.356v2.405  c0,0.339,0.367,0.551,0.661,0.382l2.431-1.409c0.229-0.131,0.37-0.375,0.37-0.639L40.553,21.702z"></path><path fill="#FFFFFF" d="M52.127,15.028c-0.001-0.352-0.189-0.677-0.494-0.852L27.414,0.211c-0.49-0.283-1.093-0.282-1.582,0.001  l-1.903,1.1c-0.168,0.096-0.225,0.31-0.129,0.478c0.031,0.054,0.075,0.098,0.129,0.129L48.67,16.184v2.406  c0,0.243,0.197,0.44,0.44,0.44c0.077,0,0.153-0.02,0.22-0.059l2.301-1.332c0.31-0.178,0.5-0.508,0.5-0.865L52.127,15.028z   M46.356,18.354c-0.002-0.355-0.197-0.68-0.508-0.851L21.469,3.479c-0.405-0.234-0.905-0.234-1.31,0L0.649,14.711  C0.248,14.943,0,15.371,0,15.834v2.232c0,0.333,0.361,0.542,0.649,0.375L20.813,6.817l22.085,12.704v2.395  c0,0.339,0.367,0.55,0.661,0.381l2.432-1.388c0.229-0.132,0.369-0.376,0.369-0.64L46.356,18.354z M304.713,9.07h0.551  c0.177,0,0.326-0.04,0.446-0.118c0.114-0.07,0.182-0.195,0.179-0.328c0-0.179-0.046-0.307-0.137-0.383s-0.257-0.115-0.496-0.117  h-0.543V9.07z M304.713,9.586v1.296h-0.582V7.613h1.083c0.393,0,0.7,0.086,0.921,0.26c0.221,0.172,0.331,0.419,0.331,0.74  c0,0.3-0.154,0.53-0.462,0.692c0.153,0.061,0.278,0.177,0.35,0.325c0.067,0.143,0.101,0.318,0.101,0.527  c0,0.209,0.004,0.357,0.013,0.444c0.006,0.076,0.023,0.15,0.052,0.22v0.061h-0.597c-0.033-0.087-0.05-0.336-0.05-0.747  c0-0.194-0.042-0.334-0.127-0.42c-0.085-0.086-0.227-0.129-0.425-0.129L304.713,9.586z M307.53,9.291  c0-0.424-0.097-0.82-0.289-1.186c-0.189-0.36-0.471-0.662-0.817-0.876c-0.346-0.218-0.747-0.332-1.156-0.329  c-0.823,0.002-1.578,0.457-1.965,1.184c-0.201,0.37-0.301,0.772-0.301,1.207c0,0.436,0.099,0.838,0.299,1.207  c0.199,0.37,0.474,0.661,0.824,0.874c0.351,0.215,0.732,0.322,1.143,0.322s0.793-0.109,1.146-0.327  c0.354-0.217,0.628-0.511,0.823-0.88C307.432,10.117,307.53,9.72,307.53,9.291 M302.532,9.293c0-0.517,0.12-0.999,0.36-1.442  c0.468-0.878,1.381-1.428,2.376-1.431c0.994,0.004,1.905,0.554,2.372,1.431c0.24,0.443,0.36,0.925,0.36,1.442  c0,0.519-0.12,0.999-0.36,1.443s-0.571,0.794-0.993,1.052c-0.421,0.258-0.88,0.387-1.379,0.387c-0.496,0-0.956-0.128-1.378-0.385  c-0.42-0.254-0.764-0.617-0.996-1.05C302.653,10.296,302.528,9.798,302.532,9.293 M81.449,31.397c-12.532,0-15.23-4.818-15.23-7.689  V13.52c0-2.872,2.698-7.69,15.23-7.69s14.678,4.818,14.678,7.69v1.421c0,0.913-0.564,1.105-1.038,1.105h-3.263  c-0.681,0-1.073-0.403-1.073-1.105V14.04c0-2.577-2.975-3.677-9.304-3.677c-7.956,0-9.856,1.964-9.856,3.885v8.732  c0,1.921,1.9,3.884,9.856,3.884c6.329,0,9.304-1.099,9.304-3.676v-0.971c0-0.702,0.392-1.105,1.073-1.105h3.263  c0.474,0,1.038,0.192,1.038,1.105v1.491C96.127,26.579,93.981,31.397,81.449,31.397 M124.42,30.808  c-0.474,0-1.038-0.192-1.038-1.106v-9.359h-18.857v9.359c0,0.914-0.565,1.106-1.038,1.106h-3.263c-0.489,0-1.073-0.192-1.073-1.106  V7.525c0-0.913,0.584-1.105,1.073-1.105h3.263c0.473,0,1.038,0.192,1.038,1.105v8.286h18.857V7.525c0-0.913,0.564-1.105,1.038-1.105  h3.262c0.49,0,1.073,0.192,1.073,1.105v22.177c0,0.914-0.583,1.106-1.073,1.106L124.42,30.808z M152.327,21.459l-3.9-6.585  c-0.634-1.047-1.227-2.118-1.78-3.21c-0.574,1.069-1.166,2.127-1.778,3.175l-3.967,6.62H152.327z M158.676,30.808  c-0.807,0-1.059-0.435-1.303-0.853l-2.473-4.171h-16.576l-2.506,4.171c-0.244,0.419-0.497,0.853-1.303,0.853h-3.124  c-0.405,0-0.73-0.16-0.89-0.439c-0.086-0.149-0.194-0.462,0.046-0.875L143.88,7.313c0.243-0.416,0.522-0.893,1.361-0.893h2.951  c0.84,0,1.155,0.541,1.364,0.897l13.121,22.175c0.243,0.417,0.134,0.733,0.047,0.883c-0.156,0.271-0.476,0.433-0.855,0.433H158.676z   M193.854,30.808c-0.473,0-1.038-0.192-1.038-1.106v-15.36c-0.27,0.366-0.545,0.717-0.832,1.06l-8.271,11.031  c0,0-0.713,0.806-1.358,0.806h-2.291c-0.768,0-1.12-0.43-1.43-0.81l-8.333-11.091c-0.246-0.277-0.478-0.566-0.695-0.867v15.231  c0,0.914-0.565,1.106-1.038,1.106h-3.056c-0.489,0-1.072-0.192-1.072-1.106V7.525c0-0.913,0.583-1.105,1.072-1.105h3.125  c0.671,0,0.933,0.302,1.163,0.569l0.05,0.057l10.703,14.109c0.195,0.228,0.647,0.799,0.707,0.874  c0.264-0.356,0.499-0.656,0.669-0.866l10.53-14.107c0.316-0.394,0.559-0.636,1.256-0.636h3.333c0.473,0,1.038,0.192,1.038,1.105  v22.177c0,0.914-0.565,1.106-1.038,1.106L193.854,30.808z M215.822,18.063c5.603,0,6.322-1.539,6.322-2.88v-1.42  c0-1.309-0.719-2.811-6.322-2.811h-8.296v7.111H215.822z M203.225,30.808c-0.49,0-1.073-0.192-1.073-1.106V7.525  c0-0.913,0.564-1.105,1.038-1.105h13.396c4.987,0,10.931,1.232,10.931,7.1v1.906c0,3.271-1.896,7.17-10.931,7.17h-9.06v7.106  c0,0.914-0.565,1.106-1.038,1.106H203.225z M231.645,30.808c-0.489,0-1.073-0.192-1.073-1.106V7.525  c0-0.913,0.584-1.105,1.073-1.105h3.263c0.474,0,1.038,0.192,1.038,1.105v22.177c0,0.914-0.564,1.106-1.038,1.106L231.645,30.808z   M254.278,10.364c-6.621,0-9.17,1.162-9.17,3.884v8.732c0,2.723,2.549,3.885,9.17,3.885c6.596,0,9.135-1.162,9.135-3.885v-8.732  C263.413,11.526,260.874,10.364,254.278,10.364 M254.278,31.397c-12.894,0-14.544-4.817-14.544-7.69V13.52  c0-2.872,1.65-7.689,14.544-7.689c12.863,0,14.509,4.817,14.509,7.689v10.187C268.787,26.58,267.141,31.397,254.278,31.397   M296.297,30.808c-0.605,0-0.844-0.196-1.205-0.492l-0.063-0.052l-15.612-15.218c-0.583-0.505-1.143-1.037-1.678-1.592v16.248  c0,0.914-0.584,1.106-1.073,1.106h-3.02c-0.489,0-1.073-0.192-1.073-1.106V7.525c0-0.913,0.565-1.105,1.038-1.105h2.639  c0.623,0,0.864,0.212,1.144,0.457l15.388,15.027c0.401,0.353,1.012,0.901,1.991,1.837V7.525c0-0.913,0.583-1.105,1.073-1.105h3.055  c0.473,0,1.038,0.192,1.038,1.105v22.177c0,0.914-0.565,1.106-1.038,1.106L296.297,30.808z M71.99,47.633h12.772V41.66  c0-0.333,0.119-0.476,0.429-0.476h2.241c0.334,0,0.453,0.143,0.453,0.476v15.23c0,0.334-0.119,0.477-0.453,0.477h-2.241  c-0.31,0-0.429-0.143-0.429-0.477v-6.71H71.99v6.71c0,0.334-0.119,0.477-0.43,0.477h-2.241c-0.333,0-0.452-0.143-0.452-0.477V41.66  c0-0.333,0.119-0.476,0.452-0.476h2.241c0.311,0,0.43,0.143,0.43,0.476V47.633z M108.817,46.277c0-1.975-1.835-2.951-6.747-2.951  c-4.91,0-6.77,0.976-6.77,2.951v5.996c0,1.975,1.86,2.952,6.77,2.952c4.912,0,6.747-0.977,6.747-2.952V46.277z M92.177,45.777  c0-2.569,2.337-4.997,9.893-4.997c7.534,0,9.87,2.428,9.87,4.997v6.996c0,2.57-2.336,4.997-9.87,4.997  c-7.556,0-9.893-2.427-9.893-4.997V45.777z M138.892,56.89c0,0.334-0.119,0.477-0.429,0.477h-2.193c-0.31,0-0.43-0.143-0.43-0.477  V45.418c-0.328,0.505-0.687,0.99-1.073,1.452l-5.691,7.593c-0.238,0.262-0.358,0.452-0.715,0.452h-1.574  c-0.381,0-0.548-0.19-0.762-0.452l-5.834-7.616c-0.239-0.263-0.525-0.643-0.978-1.31V56.89c0,0.334-0.119,0.477-0.43,0.477h-2.098  c-0.333,0-0.452-0.143-0.452-0.477V41.66c0-0.333,0.119-0.476,0.452-0.476h2.146c0.358,0,0.454,0.143,0.62,0.334l7.455,9.684  c0.263,0.31,0.454,0.572,0.716,0.881c0.238-0.332,0.477-0.642,0.668-0.881l7.241-9.684c0.19-0.239,0.285-0.334,0.644-0.334h2.288  c0.31,0,0.429,0.143,0.429,0.476L138.892,56.89z M144.473,57.366c-0.31,0-0.429-0.143-0.429-0.477V41.66  c0-0.332,0.119-0.475,0.453-0.475h15.639c0.333,0,0.476,0.119,0.476,0.451v1.642c0,0.334-0.143,0.452-0.476,0.452h-12.97v4.07  h12.206c0.334,0,0.477,0.096,0.477,0.428v1.523c0,0.333-0.143,0.453-0.477,0.453h-12.206v4.615h13.47  c0.334,0,0.477,0.096,0.477,0.429v1.665c0,0.334-0.143,0.453-0.477,0.453H144.473z M181.273,45.468c0-1.428-1.668-2.308-6.485-2.308  c-4.815,0-6.459,0.689-6.459,2.07v0.666c0,1.19,1.358,1.428,3.218,1.618l7.723,0.833c3.338,0.358,5.269,1.452,5.269,3.474v1.476  c0,2.546-2.265,4.473-9.774,4.473c-7.414,0-9.75-1.88-9.75-4.425v-1.142c0-0.334,0.143-0.477,0.453-0.477h2.121  c0.31,0,0.429,0.143,0.429,0.477v0.809c0,1.474,1.765,2.379,6.747,2.379c4.959,0,6.77-0.762,6.77-2.189v-0.81  c0-0.88-0.786-1.26-3.098-1.522l-7.915-0.857c-2.885-0.309-5.174-1.452-5.174-3.879v-0.856c0-2.595,2.17-4.498,9.44-4.498  c7.367,0,9.465,1.999,9.465,4.569v0.737c0,0.334-0.119,0.477-0.429,0.477h-2.121c-0.311,0-0.43-0.143-0.43-0.477L181.273,45.468z"></path></svg>