<svg xmlns="http://www.w3.org/2000/svg" xmlns:xlink="http://www.w3.org/1999/xlink" id="Layer_1" x="0px" y="0px" viewBox="0 0 573.809 235.963" style="enable-background:new 0 0 573.809 235.963;" xml:space="preserve"><style type="text/css">	.st0{fill:#FFFFFF;}	.st1{fill-rule:evenodd;clip-rule:evenodd;fill:#FFFFFF;}</style><path class="st0" d="M561.451,158.563c1.041,0,1.961-0.105,1.961-1.329c0-1.029-0.988-1.15-1.836-1.15h-1.665v2.479L561.451,158.563  L561.451,158.563z M559.911,163.36h-1.405v-8.452h3.213c2.042,0,3.079,0.709,3.079,2.423c0,1.54-0.933,2.172-2.196,2.313  l2.374,3.716h-1.58l-2.18-3.606h-1.305V163.36z M561.414,152.672c-3.31,0-5.887,2.602-5.887,6.329c0,3.46,2.253,6.304,5.887,6.304  c3.27,0,5.839-2.572,5.839-6.304C567.253,155.273,564.684,152.672,561.414,152.672 M561.414,166.634  c-4.403,0-7.523-3.29-7.523-7.633c0-4.611,3.477-7.653,7.523-7.653c4.012,0,7.483,3.042,7.483,7.653  C568.897,163.591,565.426,166.634,561.414,166.634"></path><path class="st0" d="M113.634,88.746c-0.822-28.65-28.644-44.955-54.316-44.955C23.352,43.791,0,71.26,0,105.768  c0,34.491,23.352,61.984,59.318,61.984c30.175,0,52.649-18.013,54.316-48.663H82.646c-1.152,13.65-9.474,22.012-23.978,22.012  c-20.01,0-27.667-17.681-27.667-35.333c0-17.661,7.657-35.335,27.667-35.335c12.981,0,22.324,6.33,23.978,18.312h30.988V88.746z"></path><rect x="117.554" y="46.268" class="st0" width="28.328" height="118.972"></rect><path class="st1" d="M177.117,140.396c0-6.823,5.31-9.489,11.636-10.988c6.191-1.669,13.522-2.163,17.488-4.635  c0.685,17.827-3.808,25.46-17.306,25.46C182.596,150.233,177.117,147.413,177.117,140.396 M178.76,105.422  c1.339-7.339,6.338-10.854,14.164-10.854c5.848,0,13.669,2.552,13.669,9.002c0,5.34-2.656,7.015-7.521,8.012  c-19.628,3.999-50.295,1.825-50.295,29.981c0,17.842,13.021,26.189,29.497,26.189c10.305,0,21.143-3.023,28.486-10.676  c0.34,2.8,0.667,5.502,1.68,8.164h28.472c-3.322-6.855-3.322-14.829-3.322-22.174v-37.819c0-24.473-19.83-28.997-40.335-28.997  c-9.807,0-19.826,1.686-27.485,6.021c-7.645,4.481-13.002,11.816-13.48,23.15L178.76,105.422L178.76,105.422z"></path><path class="st0" d="M321.093,78.741h-28.975l-16.337,56.348h-0.336l-16.299-56.348h-30.001l22.333,60.189  c1.647,4.659,7.149,17.973,7.149,22.64c0,5.996-4.821,9.675-11.301,9.675h-9.833v22.988h13.293c19.171,0,29.347-2.35,36.163-21.319  L321.093,78.741z"></path><path class="st0" d="M369.014,78.741h-17.543V52.608h-28.294V78.74h-14.319v18.375h14.319v38.467  c0,23.499,6.152,30.483,30.315,30.483c5.186,0,10.34-0.664,15.522-0.826v-20.841c-2.512,0-5.04,0.332-7.325,0.332  c-6.183,0-10.218-1.483-10.218-8.31V97.116h17.543V78.741z"></path><path class="st1" d="M393.387,122.092c0-11.024,4.003-24.163,17.171-24.163c13.151,0,17.332,13.139,17.332,24.163  c0,11.004-4.181,23.984-17.332,23.984C397.39,146.076,393.387,133.096,393.387,122.092 M365.06,122.092  c0,25.978,18.677,45.656,45.498,45.656c26.812,0,45.636-19.679,45.636-45.656c0-25.996-18.823-45.841-45.636-45.841  C383.736,76.251,365.06,96.095,365.06,122.092"></path><path class="st0" d="M458.6,165.24h28.328v-47.162c0-9.501,4.676-18.475,15.339-18.475c15.497,0,14.156,11.978,14.156,23.819v41.817  h28.319v-55.501c0-12.462-2.325-33.488-31.164-33.488c-10.314,0-21.975,5.506-27.144,14.342h-0.316V78.741H458.6V165.24z"></path><polygon class="st0" points="190.794,56.575 337.894,0 483.062,56.575 483.062,67.129 336.926,36.044 190.794,67.129 "></polygon><path class="st0" d="M306.005,174.992h9.737v22.627h0.17c2.391-4.011,7.425-6.997,13.238-6.997c9.566,0,15.627,5.121,15.627,15.027  v30.313h-9.739v-27.749c-0.167-6.916-2.901-9.905-8.622-9.905c-6.492,0-10.674,5.121-10.674,11.611v26.043h-9.737V174.992z"></path><path class="st0" d="M346.998,213.85c0-13.491,8.106-23.232,22.283-23.232c14.176,0,22.291,9.74,22.291,23.232  c0,13.581-8.115,23.316-22.291,23.316C355.104,237.166,346.998,227.431,346.998,213.85 M381.836,213.85  c0-7.597-3.845-15.537-12.555-15.537c-8.711,0-12.552,7.94-12.552,15.537c0,7.689,3.841,15.631,12.552,15.631  C377.991,229.48,381.836,221.539,381.836,213.85"></path><path class="st0" d="M394.983,191.817h9.229v6.15h0.259c2.901-4.359,6.572-7.346,13.573-7.346c5.376,0,10.42,2.306,12.385,7.346  c3.245-4.529,7.431-7.346,13.832-7.346c9.307,0,14.772,4.097,14.772,14.857v30.491h-9.731v-25.796  c0-6.997-0.434-11.866-8.034-11.866c-6.571,0-9.392,4.359-9.392,11.781v25.881h-9.731v-28.353c0-6.068-1.876-9.31-7.774-9.31  c-5.032,0-9.646,4.1-9.646,11.441v26.221h-9.74v-44.151H394.983z"></path><path class="st0" d="M472.185,216.41c0,6.92,3.756,13.07,11.867,13.07c5.636,0,9.051-2.476,10.765-7.35h9.217  c-2.127,9.65-10.323,15.031-19.981,15.031c-13.832,0-21.611-9.646-21.611-23.228c0-12.556,8.204-23.308,21.352-23.308  c13.921,0,22.466,12.547,20.841,25.783h-32.45V216.41z M494.901,210.009c-0.341-6.15-4.534-11.7-11.109-11.7  c-6.741,0-11.353,5.121-11.607,11.7H494.901z"></path><path class="st0" d="M514.283,221.795c0.515,5.636,4.781,7.686,9.987,7.686c3.675,0,10.076-0.77,9.825-5.81  c-0.26-5.121-7.342-5.721-14.428-7.342c-7.184-1.544-14.18-4.1-14.18-13.07c0-9.646,10.416-12.641,18.446-12.641  c9.047,0,17.243,3.756,18.45,13.581H532.22c-0.859-4.61-4.704-5.887-8.97-5.887c-2.824,0-8.026,0.677-8.026,4.521  c0,4.784,7.175,5.465,14.342,7.086c7.099,1.62,14.266,4.189,14.266,12.892c0,10.51-10.595,14.354-19.727,14.354  c-11.109,0-19.383-4.955-19.561-15.371h9.739V221.795z"></path></svg>