<svg xmlns="http://www.w3.org/2000/svg" xmlns:xlink="http://www.w3.org/1999/xlink" id="a" x="0px" y="0px" viewBox="0 0 347.184 195" xml:space="preserve"><path fill="#FFFFFF" d="M334.29,124.706h5.3v1.37h-1.853v5.216h-1.591v-5.216h-1.856V124.706z M345.603,131.292h1.579l-0.011-6.587  h-1.283l-2.043,2.824l-2.039-2.824h-1.283l-0.015,6.587h1.583v-3.644l1.427,1.898h0.668l1.416-1.887L345.603,131.292  L345.603,131.292z M172.469,110.671v-47.48h-19.111v18.18h-15.967v-18.18h-19.107v47.48h19.107V93.994h15.967v16.677  C153.358,110.671,172.469,110.671,172.469,110.671z M13.549,49.277h314.014V20.702l13.576-20.697H0l13.549,20.697V49.277z   M181.508,63.191v28.662c0,11.119,8.413,20.318,26.878,20.318c18.606,0,26.521-9.198,26.521-20.318V63.191h-16.825V90.71  c0,4.848-2.851,7.771-8.697,7.771s-8.769-2.923-8.769-7.771V63.191h-19.107H181.508z M92.201,75.38c5.277,0,9.84,2.141,12.623,5.277  l10.053-8.481c-3.922-5.991-13.336-10.482-24.384-10.482c-17.042,0-28.59,9.836-28.59,22.671v5.133  c0,12.831,11.548,22.671,28.59,22.671c11.047,0,19.889-4.491,23.742-10.478l-9.411-8.485c-2.354,2.779-7.346,5.273-12.623,5.273  c-6.556,0-10.762-3.424-10.762-8.838V84.22c0-5.417,4.206-8.842,10.762-8.842 M243.946,63.191v47.48h47.625V96.416h-28.518V63.191  H243.946L243.946,63.191z M32.47,100.478c-6.131,0-14.688-2.566-20.959-6.203L4.735,104.4c6.989,4.423,16.685,7.771,28.165,7.771  c14.187,0,25.735-6.913,25.735-16.54c0-16.613-33.009-12.759-33.009-19.319c0-1.644,2.069-3.067,6.845-3.067  c5.774,0,12.691,1.997,18.75,5.349l7.346-9.339c-7.133-4.423-14.19-7.562-25.595-7.562c-14.616,0-25.238,7.202-25.238,15.758  c0,17.254,32.508,13.617,32.508,19.604c0,1.788-1.853,3.424-7.771,3.424 M13.564,124.71h314.014v30.321L169.47,191.327  L13.564,155.031V124.71z M150.534,150.562l12.383,8.993l-4.73,14.555l12.383-8.993l12.38,8.993l-4.726-14.555l12.376-8.993h-15.303  l-4.726-14.555l-4.73,14.555L150.534,150.562L150.534,150.562z M284.214,77.165h16.54v33.51h19.107v-33.51h16.544V63.191h-52.191  V77.165z"></path></svg>