<svg xmlns="http://www.w3.org/2000/svg" id="Layer_1" data-name="Layer 1" viewBox="0 0 102 52"><g id="Page-1"><g id="Home-Page"><g id="Group"><polygon id="Fill-1" points="65.5 27.6 66.1 26.8 77.6 11.4 64.9 11.4 59.2 19.1 65.5 27.6" fill="#FFFFFF" fill-rule="evenodd" stroke-width="0"></polygon><polygon id="Fill-2" points="59.2 41.9 66.1 51.2 78.6 51.2 65.4 33.5 59.2 41.9" fill="#FFFFFF" fill-rule="evenodd" stroke-width="0"></polygon><polygon id="Fill-3" points="59.2 41.9 66.1 51.2 78.6 51.2 65.4 33.5 59.2 41.9" fill="#FFFFFF" fill-rule="evenodd" stroke-width="0"></polygon><polygon id="Fill-4" points="63.2 30.9 50.8 30.9 36.4 11.4 48.8 11.4 63.2 30.9" fill="#FFFFFF" fill-rule="evenodd" stroke-width="0"></polygon><polygon id="Fill-5" points="35.8 51.2 48.2 51.2 63.2 30.9 50.8 30.9 35.8 51.2" fill="#FFFFFF" fill-rule="evenodd" stroke-width="0"></polygon><g id="Group-11"><path id="Fill-6" d="M99.7,41.6c-.9.4-1.7.7-2.5.9s-1.8.3-2.9.3c-1.8,0-3.1-.7-3.7-2.1-.6-1.4-.9-3.6-.9-6.8v-13.7h12.2v-8.8h-12.2V.1l-10.4,2.8v8.5h-14.3l-5.7,7.7,6.4,8.6.6-.9,5-6.7h8.1v19.7c0,4.3.9,7.3,2.7,9.3,1.8,1.9,4.6,2.9,8.5,2.9s3.9-.3,6-.8,3.9-1.1,5.5-1.8l-2.2-7.9-.2.1Z" fill="#FFFFFF" fill-rule="evenodd" stroke-width="0"></path><g id="Group-10"><path id="Fill-8" d="M36.4,18.9c-.6-2.2-1.4-3.9-2.5-5.2s-2.4-2.2-4.1-2.7c-1.6-.5-3.5-.8-5.6-.8-3.5,0-6.3.7-8.4,2-2.2,1.3-3.9,2.9-5.2,4.8h-.1v-5.7H0v39.9h10.6v-25.1c.6-1.9,1.7-3.5,3.3-4.7s3.5-1.9,5.8-1.9,4.5.8,5.6,2.3,1.6,4,1.6,7.4v21.9h10.5v-24.1c0-3.3-.2-6-.8-8.2" fill="#FFFFFF" fill-rule="evenodd" stroke-width="0"></path></g></g></g></g></g></svg>