<svg xmlns="http://www.w3.org/2000/svg" id="a" width="7.853in" height="1.917in" viewBox="0 0 565.429 138"><defs><style>.b{fill:#FFFFFF;stroke-width:0px;}</style></defs><path class="b" d="M0,138V19.013h1.645c8.264,0,16.531-.095,24.792.065,2.134.042,3.582-.751,5.045-2.041,4.547-4.009,9.142-7.966,13.707-11.955,1.881-1.644,3.734-3.319,5.715-5.081,3.111,2.729,6.217,5.46,9.33,8.183,3.939,3.445,7.858,6.915,11.856,10.29.516.436,1.456.517,2.2.518,34.196.024,68.392.021,102.589.021h59.636v118.987H0ZM144.005,114.342c-5.668-9.073-11.2-17.925-16.74-26.792,1.169-.65,2.322-1.116,3.268-1.848,7.213-5.578,10.487-12.852,9.286-21.994-.866-6.589-4.004-11.882-9.179-16.002-3.811-3.034-8.117-4.647-13.029-4.645-30.783.014-61.564.007-92.347.007h-1.772v12.242h20.74v58.938h13.975v-58.925h27.285v58.908h13.977v-23.645c4.5,0,8.893-.011,13.285.025.307.003.721.286.898.56,1.079,1.667,2.095,3.374,3.149,5.058,3.619,5.789,7.23,11.584,10.898,17.342.256.402.953.734,1.451.739,4.849.055,9.697.033,14.857.033h0ZM147.83,43.135c0,9.624-.067,19.077.026,28.526.054,5.405.177,10.824.625,16.207.408,4.922,2.057,9.54,4.706,13.756,3.587,5.707,8.583,9.648,14.976,11.74,6.225,2.037,12.633,2.196,18.965.868,8.739-1.834,15.205-6.881,19.257-14.904,2.792-5.527,3.937-11.51,4.044-17.586.218-12.418.066-24.843.063-37.266,0-.431-.038-.861-.059-1.313h-13.897v1.86c0,12.373.067,24.746-.055,37.118-.025,2.591-.514,5.237-1.195,7.747-1.049,3.867-3.006,7.244-6.358,9.693-3.38,2.468-7.111,3.302-11.226,2.892-5.143-.512-9.198-2.862-12.138-7.073-2.868-4.11-3.641-8.914-3.712-13.717-.182-12.271-.061-24.546-.061-36.82v-1.731h-13.959v.004Z"></path><path class="b" d="M392.928,43.069c2.866,0,5.587-.032,8.304.037.379.01.919.443,1.09.817,2.364,5.148,4.705,10.308,6.995,15.49,3.168,7.17,6.317,14.348,9.417,21.548,1.663,3.861,3.205,7.774,4.81,11.66.068.165.221.296.255.34,2.321-5.271,4.616-10.6,7.008-15.887,4.272-9.444,8.605-18.862,12.907-28.293.743-1.629,1.415-3.292,2.217-4.89.189-.376.768-.775,1.178-.786,2.618-.071,5.239-.036,7.975-.036v71.763h-7.872v-55.516c-2.198,5.175-4.219,9.964-6.269,14.742-1.012,2.357-2.05,4.705-3.129,7.032-3.365,7.255-6.769,14.491-10.115,21.755-.379.823-.796,1.183-1.731,1.125-1.429-.088-2.873.045-4.301-.063-.461-.035-1.11-.427-1.297-.83-2.493-5.355-4.915-10.743-7.363-16.119-1.607-3.527-3.278-7.026-4.827-10.578-2.3-5.274-4.516-10.584-6.774-15.876-.087-.203-.238-.378-.54-.847v55.168h-7.939V43.069Z"></path><path class="b" d="M353.346,116.15c-9.739.017-17.262-3.134-23.19-9.745-3.442-3.84-5.678-8.386-7.148-13.351-1.454-4.914-2.147-9.935-1.986-15.003.261-8.214,2.027-16.077,6.765-23.007,4.665-6.824,10.98-11.112,19.194-12.597,8.766-1.584,16.746.188,23.828,5.528,5.898,4.447,9.29,10.632,11.326,17.611,1.419,4.863,2.018,9.853,1.772,14.906-.316,6.493-1.469,12.83-4.448,18.687-3.147,6.186-7.631,11.134-13.992,14.133-4.093,1.93-8.421,2.973-12.121,2.838ZM375.321,78.634c.197-3.768-.476-7.928-1.788-12.003-1.623-5.043-4.258-9.486-8.427-12.762-4.51-3.544-9.654-5.096-15.523-4.324-5.511.725-9.858,3.35-13.267,7.496-4.656,5.661-6.295,12.501-6.677,19.633-.161,3.009.163,6.077.564,9.077.917,6.863,3.521,12.932,8.79,17.683,5.206,4.694,11.322,6.236,18.034,4.848,6.637-1.373,11.31-5.565,14.43-11.504,2.895-5.513,3.996-11.434,3.865-18.14v-.003Z"></path><path class="b" d="M267.458,73.586h35.951v-30.408h7.966v71.684h-7.874v-33.69h-35.951v33.656h-7.965V43.143h7.874v30.444h0Z"></path><path class="b" d="M468.377,43.105h43.424v7.345h-35.439c-.031.488-.072.819-.072,1.15-.004,6.633.027,13.265-.03,19.897-.011,1.261.4,1.599,1.619,1.59,6.33-.051,12.659-.024,19.092-.024v7.126h-3.082c-5.395,0-10.79.016-16.185-.014-.965-.006-1.44.205-1.436,1.309.035,8.464.021,16.928.026,25.391,0,.143.038.287.088.637h1.548c9.652,0,19.303-.014,28.955.027.723.003,1.609.196,2.14.637,2.545,2.115,4.995,4.345,7.621,6.661h-48.269V43.105h0Z"></path><path class="b" d="M517.192,106.196c1.856-2.069,3.645-4.063,5.49-6.121,2.87,2.781,5.992,5.045,9.596,6.597,6.147,2.647,12.386,2.965,18.523.21,6.642-2.982,8.463-11.171,4.676-16.62-1.338-1.924-3.442-3.606-5.567-4.635-4.866-2.359-9.974-4.215-14.956-6.338-3.989-1.699-7.896-3.61-11.061-6.637-2.21-2.115-3.643-4.802-4.185-7.833-.771-4.308-.526-8.55,1.431-12.562,1.95-4,5.226-6.574,9.222-8.268,4.783-2.028,9.865-2.46,14.953-2.057,6.407.508,12.234,2.808,17.413,6.663.157.117.285.274.422.417.234.242.465.488.694.728-1.735,2.091-3.441,4.146-5.153,6.207-3.368-2.662-6.716-4.942-10.791-5.88-4.646-1.07-9.251-1.193-13.825.417-4.544,1.599-7.238,6.288-6.507,11.04.645,4.191,3.224,6.605,6.613,8.206,5.104,2.41,10.421,4.364,15.599,6.621,4.294,1.872,8.525,3.891,11.707,7.521,1.868,2.131,3.096,4.621,3.543,7.376.677,4.18.607,8.322-1.084,12.361-1.695,4.049-4.504,7.039-8.225,9.178-5.264,3.025-11.084,3.791-16.988,3.28-7.423-.642-14.095-3.36-19.703-8.417-.54-.486-1.141-.904-1.839-1.451h0Z"></path><path class="b" d="M99.426,55.247c6.157,0,12.141-.236,18.095.09,3.461.189,5.902,2.641,7.34,5.713,2.376,5.074,1.435,11.183-2.519,15.072-1.604,1.577-3.644,2.235-5.821,2.264-5.238.069-10.477.019-15.716.027-.739,0-1.389.008-1.387-1.036.017-7.308.008-14.617.008-22.128Z"></path></svg>